<svg width="348" height="254" viewBox="0 0 348 254" fill="none" xmlns="http://www.w3.org/2000/svg">
<g clip-path="url(#clip0_89_2)">
<path d="M154.489 127.249C154.723 127.656 154.749 128.077 154.572 128.52C154.406 128.968 154.114 129.281 153.697 129.458C151.916 130.281 149.551 130.973 146.593 131.541C143.645 132.098 140.249 132.645 136.406 133.187C135.515 137.202 134.598 141.515 133.656 146.124C132.708 150.734 131.807 155.385 130.947 160.083C130.098 164.775 129.301 169.296 128.551 173.645C127.812 177.989 127.197 181.963 126.697 185.562C126.197 189.171 125.801 192.187 125.51 194.604C125.979 194.364 126.452 194.338 126.926 194.52C127.343 194.697 127.645 194.989 127.843 195.395C128.051 195.812 128.098 196.255 127.989 196.729C127.333 198.505 126.723 199.921 126.156 200.979C125.598 202.046 124.911 202.583 124.093 202.583C123.911 202.583 123.702 202.551 123.468 202.499C122.577 202.208 122.057 201.406 121.906 200.104C121.765 198.812 121.906 196.296 122.322 192.562C122.848 187.895 123.765 181.63 125.072 173.77C125.947 168.755 126.885 163.551 127.885 158.166C128.895 152.791 129.906 147.682 130.906 142.833C125.89 151.999 120.869 159.666 115.843 165.833C110.812 172.01 106.02 176.442 101.468 179.124C96.9264 181.817 92.8223 182.489 89.1556 181.145C85.791 179.895 83.3431 177.067 81.8014 172.666C80.2598 168.26 79.6817 162.572 80.0723 155.604C80.4577 148.635 81.8639 140.718 84.2806 131.854C85.291 128.062 86.666 123.911 88.4056 119.395C90.1556 114.869 92.1348 110.229 94.3431 105.479C96.5619 100.718 98.9733 96.0358 101.572 91.4368C104.166 86.8275 106.843 82.5306 109.593 78.541C112.343 74.541 115.077 71.0983 117.801 68.2077C120.51 65.3066 123.208 63.3848 125.906 62.4368C128.598 61.4941 130.973 61.5827 133.031 62.7077C134.041 63.2389 135.051 64.2598 136.051 65.7702C137.062 67.2702 137.822 69.4993 138.322 72.4577C138.822 75.416 138.833 79.3483 138.364 84.2493C137.89 89.1556 136.645 95.3014 134.635 102.687C134.52 103.161 134.26 103.515 133.843 103.749C133.426 103.989 133.01 104.041 132.593 103.916C132.119 103.807 131.765 103.541 131.531 103.124C131.291 102.708 131.239 102.265 131.364 101.791C133.432 94.1139 134.656 87.7285 135.031 82.6452C135.416 77.5618 135.244 73.6556 134.51 70.916C133.77 68.166 132.723 66.4368 131.364 65.7285C130.057 64.9525 128.411 65.0098 126.426 65.8952C124.452 66.7858 122.406 68.3223 120.281 70.4993C117.614 73.3483 114.932 76.7233 112.239 80.6243C109.557 84.515 106.958 88.7077 104.447 93.2077C101.932 97.6973 99.5827 102.27 97.4056 106.937C95.2233 111.604 93.2858 116.14 91.5931 120.541C89.9108 124.947 88.5723 129.01 87.5723 132.729C84.015 145.801 82.6817 156.499 83.5723 164.833C83.9317 168.374 84.7025 171.281 85.8848 173.562C87.0619 175.838 88.5723 177.296 90.4056 177.937C92.5827 178.77 95.2233 178.442 98.3223 176.958C101.432 175.484 104.76 172.947 108.301 169.354C112.145 165.447 116.051 160.468 120.01 154.416C123.968 148.364 127.895 141.458 131.801 133.708C130.02 133.89 128.176 134.083 126.26 134.291C124.343 134.499 122.406 134.687 120.447 134.854C117.265 135.218 114.031 135.577 110.739 135.937C107.458 136.286 104.26 136.666 101.135 137.083C101.062 137.083 100.999 137.083 100.947 137.083C99.9473 137.083 99.3848 136.577 99.2598 135.562C99.2025 135.093 99.3067 134.666 99.5723 134.291C99.8327 133.906 100.202 133.682 100.676 133.624C103.812 133.208 107.02 132.843 110.301 132.52C113.577 132.187 116.843 131.848 120.093 131.499C122.395 131.265 124.687 131.031 126.968 130.791C129.244 130.557 131.447 130.322 133.572 130.083C133.624 129.958 133.666 129.854 133.697 129.77C133.739 129.676 133.786 129.572 133.843 129.458C134.26 128.515 134.968 128.218 135.968 128.562C136.437 128.744 136.791 129.098 137.031 129.624C140.406 129.156 143.416 128.666 146.072 128.166C148.723 127.666 150.791 127.062 152.281 126.354C152.697 126.176 153.119 126.176 153.551 126.354C153.994 126.536 154.307 126.833 154.489 127.249Z" fill="#04009A"/>
<path d="M196.6 129.186C197.016 129.426 197.308 129.764 197.475 130.207C197.652 130.655 197.626 131.082 197.391 131.499C196.266 133.915 194.891 136.634 193.266 139.644C191.641 142.66 189.912 145.686 188.079 148.728C186.256 151.769 184.397 154.545 182.496 157.061C180.605 159.571 178.772 161.613 176.996 163.186C175.23 164.754 173.641 165.54 172.225 165.54C171.808 165.54 171.423 165.446 171.079 165.269C169.829 164.795 169.006 163.67 168.621 161.894C168.246 160.129 168.292 157.587 168.766 154.269C169.584 148.311 171.772 139.863 175.329 128.915C175.256 128.915 175.209 128.936 175.183 128.978C175.152 129.009 175.11 129.019 175.058 129.019C173.876 129.842 172.459 130.696 170.808 131.582C169.152 132.473 167.438 133.061 165.662 133.353C163.881 133.644 162.193 133.264 160.6 132.207C158.36 130.613 157.22 128.394 157.162 125.561C157.095 122.717 158.152 119.613 160.35 116.249C161.058 115.181 161.985 113.999 163.141 112.707C164.292 111.405 165.501 110.394 166.766 109.686C168.042 108.978 169.183 108.952 170.183 109.603C170.709 109.894 171.105 110.394 171.371 111.103C171.647 111.811 171.631 112.91 171.329 114.394C171.037 115.868 170.329 117.848 169.204 120.332C168.079 122.806 166.397 126.019 164.162 129.978C165.506 130.16 167.022 129.78 168.704 128.832C170.397 127.889 171.897 126.999 173.204 126.165C174.438 125.348 175.464 124.749 176.287 124.374C177.121 123.988 177.891 124.056 178.6 124.582C179.251 125.113 179.516 125.764 179.391 126.54C179.277 127.306 179.162 127.894 179.037 128.311C177.089 134.452 175.584 139.561 174.516 143.644C173.459 147.717 172.735 150.988 172.35 153.478C171.975 155.962 171.787 157.821 171.787 159.061C171.787 160.295 171.871 161.108 172.037 161.499C172.214 161.884 172.308 162.108 172.308 162.165C173.016 162.275 174.475 161.134 176.683 158.749C178.902 156.358 181.548 152.754 184.621 147.936C187.704 143.118 190.923 137.165 194.287 130.082C194.522 129.613 194.86 129.301 195.308 129.144C195.751 128.993 196.183 129.009 196.6 129.186ZM160.871 123.165C160.522 124.405 160.417 125.426 160.558 126.228C160.709 127.019 160.933 127.655 161.225 128.124C163.11 124.821 164.542 122.134 165.516 120.061C166.501 117.993 167.167 116.394 167.516 115.269C167.876 114.144 168.084 113.348 168.141 112.874C167.485 113.238 166.673 113.915 165.704 114.915C164.73 115.915 163.787 117.134 162.871 118.561C161.954 119.978 161.287 121.514 160.871 123.165Z" fill="#04009A"/>
<path d="M230.198 129.624C230.614 129.807 230.89 130.119 231.031 130.562C231.182 131.01 231.166 131.437 230.989 131.853C229.864 134.161 228.635 136.468 227.302 138.77C225.979 141.077 224.594 143.187 223.135 145.103C221.687 147.02 220.198 148.557 218.656 149.708C217.125 150.859 215.594 151.437 214.052 151.437C213.76 151.437 213.437 151.406 213.094 151.353C209.135 150.588 206.677 145.27 205.719 135.395C204.719 136.76 203.552 138.281 202.219 139.958C200.896 141.64 199.495 143.312 198.01 144.978C197.771 145.218 197.39 145.583 196.864 146.083C196.333 146.583 195.719 146.978 195.01 147.27C194.302 147.562 193.583 147.536 192.864 147.187C191.448 146.661 190.776 145.124 190.844 142.583C190.844 141.098 191.125 139.265 191.677 137.083C192.234 134.89 193.026 132.687 194.052 130.478C195.094 128.26 196.307 126.291 197.698 124.583C199.083 122.864 200.64 121.708 202.364 121.124C203.416 120.708 204.719 120.635 206.26 120.895C207.802 121.161 209.396 122.27 211.052 124.228C211.344 124.577 211.474 124.989 211.448 125.458C211.416 125.932 211.224 126.322 210.864 126.624C210.515 126.916 210.104 127.051 209.635 127.02C209.161 126.994 208.771 126.801 208.469 126.437C207.052 124.786 205.823 124.01 204.781 124.103C203.75 124.187 202.885 124.494 202.177 125.02C200.885 125.968 199.703 127.327 198.635 129.103C197.562 130.885 196.677 132.744 195.969 134.687C195.26 136.635 194.76 138.452 194.469 140.145C194.177 141.827 194.083 143.051 194.198 143.812C194.375 143.702 194.573 143.557 194.781 143.374C194.989 143.197 195.208 142.958 195.448 142.666C197.224 140.708 198.849 138.77 200.323 136.853C201.791 134.937 203.062 133.244 204.135 131.77C204.427 131.353 204.703 130.952 204.969 130.562C205.229 130.176 205.479 129.833 205.719 129.541C206.203 128.958 206.828 128.786 207.594 129.02C208.354 129.187 208.765 129.687 208.823 130.52C209 134.369 209.312 137.458 209.76 139.791C210.203 142.124 210.687 143.869 211.219 145.02C211.76 146.176 212.265 146.958 212.739 147.374C213.208 147.781 213.562 147.978 213.802 147.978C214.927 148.218 216.724 147.062 219.198 144.52C221.682 141.978 224.578 137.286 227.885 130.437C228.12 129.968 228.458 129.656 228.906 129.499C229.349 129.348 229.781 129.39 230.198 129.624Z" fill="#04009A"/>
<path d="M276.027 129.457C276.37 129.749 276.558 130.134 276.589 130.603C276.631 131.077 276.495 131.494 276.193 131.853C268.693 140.66 262.756 144.238 258.381 142.582C255.256 141.405 253.574 137.645 253.339 131.311C252.683 132.494 251.985 133.843 251.235 135.353C250.495 136.853 249.891 138.077 249.422 139.02C249.074 139.91 248.719 140.707 248.36 141.415C248.011 142.124 247.683 142.718 247.381 143.186C247.214 143.551 246.907 144.072 246.464 144.749C246.016 145.431 245.454 146.02 244.777 146.52C244.094 147.02 243.308 147.155 242.422 146.915C241.365 146.624 240.568 145.848 240.027 144.582C239.495 143.306 239.172 141.915 239.047 140.415C238.933 138.905 238.881 137.676 238.881 136.728C238.881 135.952 238.881 135.207 238.881 134.499C238.881 133.79 238.907 133.145 238.964 132.561C236.891 135.52 234.912 138.582 233.027 141.749C231.136 144.905 229.131 148.514 227.006 152.582C226.297 153.942 225.527 154.624 224.693 154.624C224.402 154.624 224.141 154.54 223.902 154.374C223.61 154.249 223.35 154.051 223.11 153.79C222.876 153.525 222.745 152.988 222.714 152.186C222.672 151.395 222.792 150.171 223.068 148.52C223.334 146.869 223.85 144.561 224.61 141.603C225.501 137.994 226.547 134.415 227.756 130.874C228.964 127.332 230.193 124.139 231.443 121.29C231.61 120.822 231.912 120.499 232.36 120.332C232.803 120.155 233.235 120.181 233.652 120.415C234.12 120.598 234.428 120.91 234.568 121.353C234.719 121.785 234.704 122.207 234.527 122.624C232.943 126.348 231.511 130.238 230.235 134.29C228.969 138.332 227.985 141.863 227.277 144.874C229.094 141.624 230.891 138.598 232.672 135.79C234.449 132.988 236.308 130.259 238.256 127.603C238.433 127.369 238.745 127.04 239.193 126.624C239.636 126.207 240.24 126.119 241.006 126.353C241.766 126.645 242.193 127.207 242.277 128.04C242.37 128.863 242.391 130.249 242.339 132.207C242.339 132.863 242.324 133.572 242.297 134.332C242.266 135.098 242.256 135.895 242.256 136.728C242.256 138.494 242.37 139.936 242.61 141.061C242.844 142.186 243.047 142.957 243.214 143.374C243.339 143.249 243.506 143.04 243.714 142.749C243.922 142.457 244.172 142.077 244.464 141.603C244.699 141.186 244.975 140.624 245.297 139.915C245.631 139.207 246.006 138.436 246.422 137.603C247.949 134.301 249.199 131.764 250.172 129.999C251.157 128.223 252.006 127.009 252.714 126.353C253.422 125.702 254.157 125.468 254.922 125.645C255.865 125.884 256.407 126.457 256.547 127.374C256.699 128.29 256.777 129.014 256.777 129.54C256.719 132.322 256.943 134.572 257.443 136.29C257.954 137.999 258.683 139.03 259.631 139.374C260.683 139.79 262.381 139.322 264.714 137.957C267.047 136.598 270.016 133.822 273.631 129.624C273.922 129.28 274.303 129.093 274.777 129.061C275.245 129.035 275.662 129.165 276.027 129.457Z" fill="#04009A"/>
<mask id="mask0_89_2" style="mask-type:luminance" maskUnits="userSpaceOnUse" x="-35" y="-26" width="418" height="306">
<path d="M382.8 -25.4004H-34.7998V279.4H382.8V-25.4004Z" fill="black" fill-opacity="0.78"/>
</mask>
<g mask="url(#mask0_89_2)">
<mask id="mask1_89_2" style="mask-type:luminance" maskUnits="userSpaceOnUse" x="160" y="77" width="114" height="37">
<path d="M273.333 77.333H160V113.333H273.333V77.333Z" fill="white"/>
</mask>
<g mask="url(#mask1_89_2)">
<mask id="mask2_89_2" style="mask-type:luminance" maskUnits="userSpaceOnUse" x="160" y="77" width="113" height="35">
<path d="M160.969 77.9316H272.229V111.843H160.969V77.9316Z" fill="white"/>
</mask>
<g mask="url(#mask2_89_2)">
<path d="M267.521 111.525C263.677 111.119 259.828 110.723 255.979 110.317C251.932 109.89 247.88 109.457 243.833 109.004C243.536 108.968 243.193 108.775 242.995 108.546C241.589 106.921 240.214 105.265 238.828 103.619C236.359 100.692 233.896 97.7595 231.427 94.8324C228.604 91.4886 225.771 88.1449 222.948 84.8064C221.083 82.598 219.214 80.4001 217.359 78.1866C217.115 77.9001 216.953 77.8116 216.667 78.1501C214.13 81.1449 211.573 84.1189 209.031 87.1084C205.422 91.3428 201.823 95.5876 198.214 99.822C195.766 102.692 193.302 105.551 190.859 108.426C190.557 108.786 190.224 108.963 189.766 109.004C187.359 109.239 184.958 109.494 182.552 109.749C176.099 110.431 169.641 111.114 163.188 111.801C162.448 111.879 161.708 111.973 160.969 112.062C161.281 112.187 161.589 112.228 161.901 112.228C171.797 112.239 181.693 112.218 191.583 112.28C192.724 112.286 193.406 111.884 194.109 111.036C197.161 107.343 200.276 103.702 203.37 100.046C205.672 97.322 207.979 94.6032 210.286 91.8845C212.396 89.3949 214.505 86.9053 216.609 84.4105C216.854 84.1189 217.036 83.9678 217.349 84.348C219.083 86.4418 220.833 88.5199 222.573 90.6084C225.411 94.0147 228.245 97.4261 231.083 100.832C234.115 104.473 237.156 108.103 240.177 111.754C240.474 112.114 240.776 112.254 241.219 112.254C251.224 112.239 261.234 112.239 271.24 112.228C271.568 112.228 271.901 112.187 272.229 112.161C272.229 112.129 272.229 112.093 272.229 112.062C270.661 111.879 269.094 111.692 267.521 111.525Z" fill="#04009A"/>
</g>
<path d="M238.339 102.077C238.656 102.457 238.927 102.416 239.188 102.035C239.526 101.535 239.86 101.03 240.188 100.52C243.177 95.8947 246.167 91.2697 249.162 86.6499C249.287 86.452 249.448 86.2802 249.63 86.051C249.896 86.4052 250.115 86.6812 250.323 86.9729C253.646 91.6864 256.995 96.3739 260.261 101.124C260.917 102.087 261.599 102.53 262.714 102.379C263.172 102.311 263.646 102.369 264.261 102.369C264.042 102.046 263.943 101.89 263.834 101.744C262.255 99.6239 260.672 97.5041 259.094 95.3791C256.141 91.4104 253.183 87.4416 250.229 83.4677C249.599 82.6239 249.62 82.6239 248.714 83.1552C245.172 85.2541 241.63 87.3427 238.084 89.4312C235.943 90.6968 233.808 91.9677 231.662 93.2229C231.323 93.4156 231.308 93.5874 231.552 93.8791C233.818 96.6083 236.078 99.3374 238.339 102.077Z" fill="#04009A"/>
<path d="M172.146 102.739C172.286 102.734 172.453 102.546 172.552 102.4C176.172 97.2754 179.781 92.14 183.391 87.0046C183.521 86.8223 183.599 86.6088 183.729 86.364C183.99 86.6869 184.083 86.7806 184.156 86.89C185.385 88.7754 186.62 90.6609 187.839 92.5515C189.958 95.8223 192.068 99.0984 194.188 102.369C194.531 102.906 194.792 102.916 195.182 102.442C197.391 99.765 199.599 97.0879 201.802 94.4057C201.917 94.265 202.016 94.1088 202.167 93.8952C201.938 93.7442 201.792 93.6348 201.63 93.5411C199.484 92.2806 197.339 91.0359 195.193 89.7702C191.536 87.6192 187.885 85.4577 184.229 83.2911C183.958 83.1296 183.766 83.1452 183.568 83.4213C183.115 84.0515 182.635 84.6556 182.172 85.2754C178.057 90.8067 173.938 96.3379 169.823 101.869C169.641 102.119 169.484 102.385 169.234 102.755C170.302 102.755 171.224 102.77 172.146 102.739Z" fill="#04009A"/>
<path d="M217.453 87.187C217.109 86.786 216.932 86.7339 216.568 87.1714C213.958 90.3277 211.323 93.4631 208.698 96.6089C208.125 97.2964 207.557 97.9891 206.984 98.6818C207.021 98.7235 207.062 98.76 207.099 98.8016C207.208 98.7079 207.323 98.6141 207.432 98.5152C208.844 97.161 210.26 95.812 211.672 94.4579C213.318 92.885 214.964 91.3068 216.604 89.7287C216.839 89.4995 217.031 89.3537 217.349 89.6558C219.703 91.9058 222.073 94.135 224.438 96.3693C225.385 97.26 226.333 98.1454 227.286 99.0308C227.188 98.7079 227.01 98.4683 226.818 98.2391C223.693 94.5568 220.563 90.885 217.453 87.187Z" fill="#04009A"/>
<mask id="mask3_89_2" style="mask-type:luminance" maskUnits="userSpaceOnUse" x="210" y="105" width="8" height="7">
<path d="M210.667 105.333H217.334V111.843H210.667V105.333Z" fill="white"/>
</mask>
<g mask="url(#mask3_89_2)">
<path d="M216.068 106.552C214.823 106.562 213.579 106.568 212.334 106.552C211.928 106.547 211.818 106.724 211.829 107.104C211.849 107.807 211.834 108.515 211.834 109.219C211.834 109.219 211.834 109.219 211.829 109.219C211.829 109.943 211.849 110.672 211.823 111.396C211.808 111.838 211.959 112.005 212.396 111.995C213.568 111.974 214.74 111.958 215.912 112C216.454 112.021 216.584 111.791 216.579 111.302C216.558 109.885 216.547 108.474 216.558 107.062C216.558 106.693 216.428 106.547 216.068 106.552Z" fill="#04009A"/>
</g>
<path d="M216.62 102.562C216.62 101.687 216.615 100.807 216.625 99.9315C216.625 99.5617 216.485 99.4003 216.12 99.4576C214.86 99.6503 213.782 100.171 212.943 101.187C211.938 102.405 211.75 103.853 211.818 105.374C211.834 105.723 212.037 105.765 212.308 105.76C213.537 105.76 214.766 105.744 215.99 105.77C216.495 105.78 216.636 105.551 216.625 105.083C216.605 104.244 216.62 103.405 216.62 102.562Z" fill="#04009A"/>
<mask id="mask4_89_2" style="mask-type:luminance" maskUnits="userSpaceOnUse" x="217" y="105" width="6" height="7">
<path d="M217.333 105.333H222.666V111.843H217.333V105.333Z" fill="white"/>
</mask>
<g mask="url(#mask4_89_2)">
<path d="M221.724 107.047C221.729 106.672 221.573 106.552 221.219 106.552C220.089 106.563 218.953 106.563 217.823 106.547C217.458 106.547 217.328 106.703 217.339 107.063C217.354 107.792 217.344 108.516 217.344 109.24C217.344 109.964 217.359 110.687 217.339 111.411C217.328 111.818 217.438 112.005 217.87 111.995C218.984 111.974 220.099 111.974 221.214 111.995C221.609 112 221.734 111.833 221.734 111.453C221.719 109.984 221.719 108.516 221.724 107.047Z" fill="#04009A"/>
</g>
<path d="M217.844 99.531C217.454 99.4529 217.329 99.5674 217.334 99.9477C217.344 100.828 217.339 101.703 217.339 102.583C217.339 103.442 217.365 104.302 217.329 105.156C217.308 105.661 217.511 105.781 217.954 105.771C218.73 105.745 219.511 105.76 220.292 105.76C221.75 105.765 221.75 105.765 221.735 104.297C221.714 101.927 220.11 99.9789 217.844 99.531Z" fill="#04009A"/>
<path d="M182.661 96.6917C182.661 96.3376 182.375 96.0459 182.026 96.0459H181.51C181.156 96.0459 180.875 96.3376 180.875 96.6917V97.8011C180.875 98.1605 181.156 98.4521 181.51 98.4521H182.026C182.375 98.4521 182.661 98.1605 182.661 97.8011V96.6917Z" fill="#04009A"/>
<path d="M185.119 96.6917C185.119 96.3376 184.833 96.0459 184.484 96.0459H183.963C183.614 96.0459 183.333 96.3376 183.333 96.6917V97.8011C183.333 98.1605 183.614 98.4521 183.963 98.4521H184.484C184.833 98.4521 185.119 98.1605 185.119 97.8011V96.6917Z" fill="#04009A"/>
<path d="M182.026 98.9111H181.51C181.156 98.9111 180.875 99.2028 180.875 99.5622V100.666C180.875 101.026 181.156 101.317 181.51 101.317H182.026C182.375 101.317 182.661 101.026 182.661 100.666V99.5622C182.661 99.2028 182.375 98.9111 182.026 98.9111Z" fill="#04009A"/>
<path d="M184.484 98.9111H183.963C183.614 98.9111 183.333 99.2028 183.333 99.5622V100.666C183.333 101.026 183.614 101.317 183.963 101.317H184.484C184.833 101.317 185.119 101.026 185.119 100.666V99.5622C185.119 99.2028 184.833 98.9111 184.484 98.9111Z" fill="#04009A"/>
<path d="M249.771 96.6917C249.771 96.3376 249.49 96.0459 249.141 96.0459H248.62C248.271 96.0459 247.984 96.3376 247.984 96.6917V97.8011C247.984 98.1605 248.271 98.4521 248.62 98.4521H249.141C249.49 98.4521 249.771 98.1605 249.771 97.8011V96.6917Z" fill="#04009A"/>
<path d="M252.229 96.6917C252.229 96.3376 251.942 96.0459 251.593 96.0459H251.078C250.724 96.0459 250.442 96.3376 250.442 96.6917V97.8011C250.442 98.1605 250.724 98.4521 251.078 98.4521H251.593C251.942 98.4521 252.229 98.1605 252.229 97.8011V96.6917Z" fill="#04009A"/>
<path d="M249.141 98.9111H248.62C248.271 98.9111 247.984 99.2028 247.984 99.5622V100.666C247.984 101.026 248.271 101.317 248.62 101.317H249.141C249.49 101.317 249.771 101.026 249.771 100.666V99.5622C249.771 99.2028 249.49 98.9111 249.141 98.9111Z" fill="#04009A"/>
<path d="M251.593 98.9111H251.078C250.724 98.9111 250.442 99.2028 250.442 99.5622V100.666C250.442 101.026 250.724 101.317 251.078 101.317H251.593C251.942 101.317 252.229 101.026 252.229 100.666V99.5622C252.229 99.2028 251.942 98.9111 251.593 98.9111Z" fill="#04009A"/>
</g>
</g>
<path d="M145.31 195.207C144.378 195.342 143.769 195.415 143.477 195.415C142.769 195.415 141.914 195.274 140.914 194.998C140.44 194.842 140.091 194.675 139.873 194.498C139.664 194.316 139.42 194.05 139.144 193.707C138.878 193.373 138.675 193.123 138.539 192.957C137.899 192.05 137.581 191.259 137.581 190.582C137.581 190.056 137.831 189.863 138.331 189.998C138.69 190.175 139.086 190.53 139.519 191.061C139.935 191.488 140.394 191.8 140.894 191.998C141.404 192.207 142.019 192.311 142.727 192.311C142.977 192.311 143.461 192.274 144.185 192.207C145.045 192.05 146.045 191.78 147.185 191.394C148.321 191.004 149.164 190.592 149.706 190.165C151.425 188.988 152.831 188.035 153.914 187.311C155.008 186.592 155.706 186.144 155.998 185.978C156.065 185.8 156.44 185.582 157.123 185.332L158.56 183.936C159.487 182.925 160.102 182.311 160.394 182.103C160.435 181.853 160.498 181.597 160.581 181.332C160.664 181.056 160.706 180.847 160.706 180.707C161.133 180.248 161.779 179.134 162.644 177.353C163.503 175.576 164.091 174.05 164.414 172.769C164.732 171.092 164.894 169.603 164.894 168.311C164.894 166.134 164.508 164.3 163.748 162.811C162.982 161.326 161.862 159.951 160.394 158.686C159.644 158.092 158.399 157.425 156.664 156.686C154.925 155.951 153.914 155.639 153.623 155.748C153.44 155.78 152.956 156.806 152.164 158.832C151.383 160.863 150.315 163.769 148.956 167.561L147.248 172.332C147.091 172.905 146.925 173.436 146.748 173.936C146.581 174.436 146.44 174.889 146.331 175.29C145.857 176.613 145.623 177.363 145.623 177.54C145.232 178.155 144.92 178.951 144.685 179.936C144.446 180.925 144.19 182.597 143.914 184.957C143.591 186.139 143.446 186.675 143.477 186.561C143.336 187.175 143.211 187.675 143.102 188.061C142.987 188.451 142.883 188.634 142.789 188.603L142.56 188.811C142.56 189.035 142.399 189.144 142.081 189.144C141.8 189.144 141.482 189.061 141.123 188.894C140.758 188.728 140.477 188.54 140.269 188.332C140.112 187.832 140.039 187.472 140.039 187.248C140.039 186.79 140.185 186.076 140.477 185.103C140.769 183.894 141.237 182.196 141.894 179.998C142.56 177.79 143.123 175.988 143.581 174.582C143.831 173.972 144.19 172.826 144.664 171.144C145.05 169.826 145.487 168.472 145.977 167.082C146.461 165.681 146.81 164.8 147.019 164.436C147.086 164.186 147.331 163.472 147.748 162.29C148.164 161.113 148.654 159.806 149.227 158.373L149.602 156.603L149.019 156.332C148.685 156.446 148.394 156.498 148.144 156.498C147.977 156.498 147.779 156.446 147.56 156.332C147.196 156.446 146.706 156.3 146.081 155.894C145.456 155.478 145.107 155.092 145.039 154.728C144.966 154.618 144.92 154.457 144.894 154.248C144.878 154.03 144.873 153.884 144.873 153.811C144.94 153.451 145.654 153.118 147.019 152.811C148.378 152.509 149.862 152.353 151.477 152.353C152.154 152.353 152.675 152.373 153.039 152.415C153.675 152.457 154.289 152.571 154.873 152.748C155.466 152.915 156.196 153.181 157.06 153.54L158.352 154.019C159.487 154.451 160.711 155.207 162.019 156.29C163.336 157.363 164.503 158.623 165.519 160.082C166.545 161.53 167.232 162.998 167.581 164.498C167.69 164.957 167.795 165.603 167.894 166.436C168.003 167.259 168.06 167.988 168.06 168.623C168.06 169.373 167.987 169.842 167.852 170.019C167.737 170.175 167.685 170.353 167.685 170.561C167.685 170.769 167.758 170.894 167.914 170.936C167.841 171.144 167.716 171.54 167.539 172.123C167.357 172.696 167.154 173.3 166.935 173.936C166.727 176.201 165.727 178.853 163.935 181.894C163.753 181.894 163.607 181.925 163.498 181.978C163.399 182.019 163.42 182.061 163.56 182.103C163.56 182.285 163.362 182.623 162.977 183.123C162.862 183.196 162.633 183.457 162.289 183.915C161.956 184.363 161.716 184.634 161.581 184.728C161.539 184.978 161.425 185.186 161.248 185.353C161.065 185.519 160.904 185.603 160.769 185.603C160.769 185.603 160.737 185.613 160.685 185.623C160.628 185.639 160.602 185.701 160.602 185.811C159.961 186.743 158.789 187.889 157.081 189.248C155.383 190.608 153.878 191.571 152.56 192.144C152.196 192.394 151.774 192.623 151.289 192.832C150.8 193.05 150.466 193.196 150.289 193.269C150.008 193.519 149.289 193.863 148.123 194.311C146.956 194.769 146.019 195.066 145.31 195.207Z" fill="#04009A"/>
<path d="M179.064 188.227C178.174 189.008 177.106 189.394 175.856 189.394C174.95 189.394 174.096 189.186 173.294 188.769C172.486 188.342 171.82 187.748 171.294 186.998C170.82 186.415 170.471 185.769 170.252 185.061C170.044 184.342 169.939 183.456 169.939 182.415C169.939 182.071 169.971 181.352 170.044 180.269C170.153 178.951 170.59 177.576 171.356 176.144C172.132 174.717 173.09 173.436 174.231 172.311C175.382 171.186 176.512 170.41 177.627 169.977C178.195 169.618 178.71 169.436 179.169 169.436C179.419 169.436 179.669 169.456 179.919 169.498C180.179 169.529 180.45 169.561 180.731 169.602C181.523 169.701 182.117 169.852 182.523 170.061C182.939 170.258 183.294 170.55 183.585 170.936C184.471 171.826 184.919 172.863 184.919 174.04C184.778 174.904 184.221 175.889 183.252 176.998C182.294 178.113 181.132 179.008 179.773 179.686C179.117 179.91 178.382 180.019 177.564 180.019C176.45 180.019 175.554 179.785 174.877 179.311C174.554 179.201 174.304 179.144 174.127 179.144C173.804 179.144 173.564 179.363 173.398 179.79C173.242 180.222 173.09 181.014 172.939 182.165C172.908 182.415 172.898 182.769 172.898 183.227C172.898 185.061 173.507 186.061 174.731 186.227C175.549 186.41 176.137 186.498 176.502 186.498C176.919 186.498 177.398 186.363 177.939 186.081L178.96 185.477C179.179 185.383 179.377 185.243 179.544 185.061C179.721 184.883 179.887 184.722 180.044 184.581C180.111 184.498 180.215 184.383 180.356 184.227C180.492 184.061 180.627 183.951 180.752 183.894C180.877 183.842 180.992 183.811 181.106 183.811C181.242 183.811 181.403 183.894 181.585 184.061C181.762 184.227 181.908 184.347 182.023 184.415C182.34 184.415 182.408 184.639 182.231 185.081C182.049 185.529 181.658 186.05 181.064 186.644C180.481 187.227 179.814 187.758 179.064 188.227ZM179.023 176.831C179.617 176.581 180.231 176.139 180.856 175.498C181.492 174.863 181.814 174.326 181.814 173.894C181.814 173.467 181.648 173.113 181.314 172.831C180.992 172.54 180.549 172.394 179.981 172.394C179.549 172.394 179.231 172.43 179.023 172.498C178.523 172.639 177.929 173.019 177.252 173.644C176.57 174.269 175.981 174.91 175.481 175.561C174.981 176.201 174.778 176.576 174.877 176.686C175.054 177.008 175.757 177.165 176.981 177.165C177.799 177.165 178.481 177.055 179.023 176.831Z" fill="#04009A"/>
<path d="M190.343 190.31C189.702 190.06 189.077 189.701 188.468 189.227C187.853 188.743 187.437 188.321 187.218 187.956C187.218 187.888 187.218 187.763 187.218 187.581C187.218 187.404 187.27 187.284 187.384 187.227C187.494 187.175 187.697 187.144 187.989 187.144C188.582 187.144 189.551 187.222 190.884 187.373C191.66 187.373 192.551 187.279 193.551 187.081C194.562 186.873 195.119 186.644 195.218 186.394C195.327 186.394 195.384 186.383 195.384 186.352C195.384 186.269 195.244 186.091 194.968 185.81C194.884 185.81 194.718 185.748 194.468 185.623C194.218 185.498 194.056 185.435 193.989 185.435C193.989 185.284 193.827 185.097 193.509 184.873C193.187 184.638 192.827 184.43 192.426 184.248C191.395 183.388 190.666 182.758 190.239 182.352C189.806 181.935 189.645 181.638 189.759 181.456V181.185C189.509 181.185 189.228 180.841 188.926 180.144C188.619 179.451 188.468 178.8 188.468 178.185C188.468 177.55 188.744 176.659 189.301 175.519C189.853 174.368 190.489 173.43 191.197 172.706C192.197 171.779 193.494 170.8 195.093 169.769C196.687 168.727 197.952 168.06 198.884 167.769C199.478 167.519 200.082 167.394 200.697 167.394C201.265 167.394 201.749 167.519 202.155 167.769C202.614 168.06 203.062 168.477 203.509 169.019C203.968 169.55 204.265 170.029 204.405 170.456C204.405 171.248 204.322 172.013 204.155 172.748C203.999 173.472 203.765 173.831 203.447 173.831C203.405 173.831 203.348 173.852 203.28 173.894C203.207 173.925 203.176 174.013 203.176 174.164C203.176 174.305 203.098 174.493 202.947 174.727C202.806 174.951 202.614 175.175 202.364 175.394C201.572 175.966 200.926 176.248 200.426 176.248C200.035 176.248 199.785 176.055 199.676 175.664C199.603 175.597 199.535 175.493 199.468 175.352C199.395 175.201 199.306 175.123 199.197 175.123C199.166 175.123 199.103 175.06 199.009 174.935C198.926 174.81 198.884 174.644 198.884 174.435C198.884 174.326 198.926 174.206 199.009 174.081C199.103 173.956 199.166 173.873 199.197 173.831C199.416 173.831 199.78 173.414 200.28 172.581C200.78 171.737 201.03 171.164 201.03 170.873C201.03 170.664 200.999 170.55 200.947 170.519C200.89 170.477 200.718 170.456 200.426 170.456C197.634 171.706 195.895 172.654 195.218 173.289C195.119 173.513 195.041 173.659 194.989 173.727C194.931 173.8 194.832 173.831 194.697 173.831C194.697 173.513 193.744 174.727 191.843 177.477C191.77 177.56 191.687 177.784 191.593 178.144C191.509 178.493 191.468 178.789 191.468 179.039C191.395 179.331 191.364 179.493 191.364 179.519C191.364 179.675 191.426 179.821 191.551 179.956C191.676 180.097 191.843 180.248 192.051 180.414C192.27 180.571 192.489 180.737 192.697 180.914C194.556 182.321 195.853 183.368 196.593 184.06C197.327 184.758 197.765 185.341 197.905 185.81C198.374 186.519 198.614 187.164 198.614 187.748C198.614 188.18 198.447 188.555 198.114 188.873C197.791 189.196 197.312 189.498 196.676 189.789C196.285 189.956 195.624 190.102 194.697 190.227C193.765 190.352 192.848 190.414 191.947 190.414C191.447 190.414 190.91 190.378 190.343 190.31Z" fill="#04009A"/>
<path d="M211.168 166.581C210.918 166.331 210.7 165.91 210.522 165.311C210.34 164.701 210.34 164.394 210.522 164.394C210.814 164.352 211.147 164.04 211.522 163.456C211.897 162.863 212.064 162.368 212.022 161.977C212.022 161.826 212.075 161.686 212.189 161.561C212.299 161.436 212.424 161.363 212.564 161.331C212.856 161.154 213.106 161.061 213.314 161.061C213.924 161.061 214.481 161.493 214.981 162.352C215.189 162.811 215.293 163.222 215.293 163.581C215.293 163.904 215.2 164.238 215.022 164.581C214.856 164.915 214.533 165.352 214.064 165.894C213.45 166.717 212.882 167.123 212.356 167.123C211.991 167.123 211.595 166.946 211.168 166.581ZM205.96 188.394C205.46 187.883 205.21 187.16 205.21 186.227C205.21 185.727 205.299 185.305 205.481 184.956C205.481 184.779 205.512 184.561 205.585 184.311C205.653 184.061 205.689 183.894 205.689 183.811C205.658 183.602 205.804 183.014 206.127 182.04C206.762 180.613 207.616 178.092 208.689 174.477C208.689 174.3 208.757 174.144 208.897 174.019C209.049 173.894 209.272 173.821 209.564 173.79C209.84 173.706 210.033 173.665 210.147 173.665C210.366 173.665 210.554 173.748 210.71 173.915C210.877 174.081 211.095 174.383 211.377 174.811C211.595 175.019 211.71 175.342 211.71 175.769C211.71 176.451 211.47 177.269 211.002 178.227C210.543 179.269 210.236 180.165 210.085 180.915C209.668 181.889 209.335 182.785 209.085 183.602C209.002 183.826 208.887 184.258 208.752 184.894C208.611 185.535 208.418 186.055 208.168 186.456C207.944 187.456 207.741 188.16 207.564 188.561C207.382 188.951 207.189 189.144 206.981 189.144C206.731 189.144 206.387 188.894 205.96 188.394Z" fill="#04009A"/>
<path d="M230.768 173.894C230.977 174.326 231.081 174.738 231.081 175.123C231.081 175.665 230.862 176.201 230.435 176.728C230.336 176.91 230.143 177.186 229.852 177.561C229.56 177.936 229.3 178.326 229.081 178.728C228.872 179.118 228.716 179.561 228.622 180.061C228.466 180.884 228.039 182.639 227.331 185.332L226.727 187.415L225.872 190.748C224.258 196.29 222.649 199.488 221.039 200.353C220.581 200.53 220.133 200.623 219.706 200.623C218.914 200.623 218.091 200.358 217.247 199.832C216.414 199.316 215.69 198.613 215.081 197.728C214.716 197.228 214.372 196.425 214.039 195.332C213.706 194.248 213.643 193.629 213.852 193.478C213.919 193.405 214.044 193.373 214.227 193.373C214.477 193.373 214.737 193.446 215.018 193.603C215.31 193.769 215.487 193.962 215.56 194.186C215.711 194.571 216.018 195.087 216.477 195.728C216.945 196.379 217.289 196.728 217.497 196.769C218.065 197.045 218.55 197.186 218.956 197.186C219.274 197.186 219.581 197.082 219.872 196.873C220.44 196.399 220.925 195.795 221.331 195.061C221.747 194.337 222.206 193.17 222.706 191.561L223.143 189.998C224.003 186.847 224.628 184.806 225.018 183.873C225.195 183.306 225.378 182.863 225.56 182.54L224.581 183.394C224.149 183.785 223.695 184.16 223.227 184.519C222.768 184.884 222.289 185.165 221.789 185.373C221.539 185.696 220.914 185.853 219.914 185.853C219.206 185.853 218.487 185.748 217.768 185.54C217.018 185.155 216.55 184.853 216.372 184.644C216.19 184.425 215.94 183.915 215.622 183.123C215.482 182.832 215.414 182.389 215.414 181.79C215.414 180.248 215.768 178.597 216.477 176.832C217.154 175.446 218.232 173.967 219.706 172.394C221.175 170.811 222.445 169.863 223.518 169.54C223.945 169.332 224.341 169.228 224.706 169.228C225.091 169.228 225.503 169.3 225.935 169.436C226.503 169.509 226.945 169.634 227.268 169.811C227.586 169.993 228.128 170.405 228.893 171.04C229.737 171.905 230.362 172.853 230.768 173.894ZM224.852 179.207C225.461 178.389 225.893 177.509 226.143 176.561C226.393 175.603 226.482 174.66 226.414 173.728C226.372 173.228 226.294 172.884 226.185 172.686C226.086 172.493 225.893 172.394 225.602 172.394C224.919 172.394 224.133 172.717 223.247 173.353C222.357 173.993 221.497 174.832 220.664 175.873C220.133 176.597 219.69 177.457 219.331 178.457C218.899 179.665 218.685 180.79 218.685 181.832C218.685 182.623 218.831 183.076 219.122 183.186C220.216 183.144 221.227 182.821 222.143 182.207C223.06 181.597 223.961 180.597 224.852 179.207Z" fill="#04009A"/>
<path d="M253.469 187.623C252.745 187.623 252.146 187.477 251.678 187.186C251.219 186.883 250.829 186.368 250.511 185.644C250.188 184.508 250.032 183.363 250.032 182.206C250.032 181.68 250.084 181.305 250.199 181.081C250.334 180.946 250.391 180.633 250.365 180.144C250.35 179.66 250.344 179.311 250.344 179.102C250.313 178.269 250.063 177.852 249.594 177.852C249.271 177.852 248.917 177.977 248.532 178.227C246.532 179.493 244.85 180.576 243.49 181.477C242.126 182.368 240.824 183.363 239.574 184.456C239.058 185.04 238.678 185.55 238.428 185.977C238.178 186.394 237.995 186.686 237.886 186.852C237.787 187.019 237.646 187.102 237.469 187.102C237.261 187.175 237.115 187.206 237.032 187.206C236.865 187.206 236.646 187.113 236.386 186.915C236.136 186.706 235.975 186.571 235.907 186.498C235.766 186.363 235.537 186.123 235.219 185.79C234.896 185.446 234.719 185.201 234.678 185.061C234.678 184.769 234.792 184.113 235.032 183.081C235.266 182.04 235.454 181.373 235.594 181.081C235.704 181.081 235.865 180.863 236.074 180.415C236.282 179.972 236.475 179.623 236.657 179.373C236.766 178.831 237.23 177.597 238.053 175.665C238.553 174.805 238.896 174.092 239.094 173.519C239.303 172.936 239.438 172.222 239.511 171.373V171.248C239.511 171.113 239.558 170.998 239.657 170.915C239.766 170.821 239.876 170.769 239.99 170.769C240.24 170.592 240.475 170.498 240.699 170.498C241.157 170.498 241.62 170.79 242.094 171.373C242.62 172.055 242.886 172.769 242.886 173.519C242.886 174.451 242.292 175.915 241.115 177.915C241.016 178.165 240.865 178.529 240.657 178.998C240.459 179.456 240.365 179.779 240.365 179.956L243.365 177.915C243.657 177.597 244.428 177.029 245.678 176.206C246.928 175.373 247.808 174.91 248.324 174.811C249.167 174.41 249.704 174.206 249.928 174.206C250.355 174.206 250.933 174.535 251.657 175.186C252.391 175.826 252.834 176.363 252.99 176.79C252.99 177.18 253.021 177.467 253.094 177.644C253.271 178.368 253.365 179.206 253.365 180.165C253.365 180.821 253.313 181.404 253.219 181.915C253.136 182.43 253.021 182.727 252.886 182.811C252.886 182.842 252.896 182.889 252.928 182.956C252.969 183.029 253.037 183.061 253.136 183.061V183.331C252.855 183.331 252.824 183.639 253.032 184.248C253.251 184.863 253.542 185.326 253.907 185.644C254.251 186.008 254.428 186.368 254.428 186.727C254.428 187.16 254.105 187.456 253.469 187.623Z" fill="#04009A"/>
</g>
<defs>
<clipPath id="clip0_89_2">
<rect width="348" height="254" fill="white"/>
</clipPath>
</defs>
</svg>
