<svg xmlns="http://www.w3.org/2000/svg" xmlns:xlink="http://www.w3.org/1999/xlink" width="348" zoomAndPan="magnify" viewBox="0 0 261 190.499994" height="254" preserveAspectRatio="xMidYMid meet" version="1.0"><defs><filter x="0%" y="0%" width="100%" height="100%" id="1dd9b38cad"><feColorMatrix values="0 0 0 0 1 0 0 0 0 1 0 0 0 0 1 0 0 0 1 0" color-interpolation-filters="sRGB"/></filter><g/><mask id="9a4342f441"><g filter="url(#1dd9b38cad)"><rect x="-26.1" width="313.2" fill="#000000" y="-19.049999" height="228.599993" fill-opacity="0.78"/></g></mask><clipPath id="045466fd79"><path d="M 0.726562 0.449219 L 84.171875 0.449219 L 84.171875 25.882812 L 0.726562 25.882812 Z M 0.726562 0.449219 " clip-rule="nonzero"/></clipPath><clipPath id="6f985e9d61"><path d="M 38 21 L 43 21 L 43 25.882812 L 38 25.882812 Z M 38 21 " clip-rule="nonzero"/></clipPath><clipPath id="8f20b79f2f"><path d="M 43 21 L 47 21 L 47 25.882812 L 43 25.882812 Z M 43 21 " clip-rule="nonzero"/></clipPath><clipPath id="5481d86f33"><rect x="0" width="85" y="0" height="27"/></clipPath></defs><g fill="#04009a" fill-opacity="1"><g transform="translate(56.632602, 111.983561)"><g><path d="M 59.234375 -16.546875 C 59.410156 -16.242188 59.429688 -15.925781 59.296875 -15.59375 C 59.171875 -15.257812 58.953125 -15.023438 58.640625 -14.890625 C 57.304688 -14.273438 55.53125 -13.753906 53.3125 -13.328125 C 51.101562 -12.910156 48.554688 -12.5 45.671875 -12.09375 C 45.003906 -9.082031 44.316406 -5.847656 43.609375 -2.390625 C 42.898438 1.066406 42.222656 4.554688 41.578125 8.078125 C 40.941406 11.597656 40.34375 14.988281 39.78125 18.25 C 39.226562 21.507812 38.765625 24.488281 38.390625 27.1875 C 38.015625 29.894531 37.71875 32.15625 37.5 33.96875 C 37.851562 33.789062 38.207031 33.769531 38.5625 33.90625 C 38.875 34.039062 39.101562 34.257812 39.25 34.5625 C 39.40625 34.875 39.441406 35.207031 39.359375 35.5625 C 38.867188 36.894531 38.410156 37.957031 37.984375 38.75 C 37.566406 39.550781 37.050781 39.953125 36.4375 39.953125 C 36.300781 39.953125 36.144531 39.929688 35.96875 39.890625 C 35.300781 39.671875 34.910156 39.070312 34.796875 38.09375 C 34.691406 37.125 34.796875 35.238281 35.109375 32.4375 C 35.503906 28.9375 36.191406 24.238281 37.171875 18.34375 C 37.828125 14.582031 38.53125 10.679688 39.28125 6.640625 C 40.039062 2.609375 40.796875 -1.222656 41.546875 -4.859375 C 37.785156 2.015625 34.019531 7.765625 30.25 12.390625 C 26.476562 17.023438 22.882812 20.347656 19.46875 22.359375 C 16.0625 24.378906 12.984375 24.882812 10.234375 23.875 C 7.710938 22.9375 5.875 20.816406 4.71875 17.515625 C 3.5625 14.210938 3.128906 9.945312 3.421875 4.71875 C 3.710938 -0.507812 4.765625 -6.445312 6.578125 -13.09375 C 7.335938 -15.9375 8.367188 -19.050781 9.671875 -22.4375 C 10.984375 -25.832031 12.46875 -29.3125 14.125 -32.875 C 15.789062 -36.445312 17.597656 -39.957031 19.546875 -43.40625 C 21.492188 -46.863281 23.5 -50.085938 25.5625 -53.078125 C 27.625 -56.078125 29.675781 -58.660156 31.71875 -60.828125 C 33.75 -63.003906 35.773438 -64.445312 37.796875 -65.15625 C 39.816406 -65.863281 41.597656 -65.796875 43.140625 -64.953125 C 43.898438 -64.554688 44.65625 -63.789062 45.40625 -62.65625 C 46.164062 -61.53125 46.734375 -59.859375 47.109375 -57.640625 C 47.484375 -55.421875 47.492188 -52.472656 47.140625 -48.796875 C 46.785156 -45.117188 45.851562 -40.507812 44.34375 -34.96875 C 44.257812 -34.613281 44.0625 -34.347656 43.75 -34.171875 C 43.4375 -33.992188 43.125 -33.953125 42.8125 -34.046875 C 42.457031 -34.128906 42.191406 -34.328125 42.015625 -34.640625 C 41.835938 -34.953125 41.796875 -35.285156 41.890625 -35.640625 C 43.441406 -41.398438 44.359375 -46.1875 44.640625 -50 C 44.929688 -53.8125 44.800781 -56.742188 44.25 -58.796875 C 43.695312 -60.859375 42.910156 -62.15625 41.890625 -62.6875 C 40.910156 -63.269531 39.675781 -63.226562 38.1875 -62.5625 C 36.707031 -61.894531 35.171875 -60.742188 33.578125 -59.109375 C 31.578125 -56.972656 29.566406 -54.441406 27.546875 -51.515625 C 25.535156 -48.597656 23.585938 -45.453125 21.703125 -42.078125 C 19.816406 -38.710938 18.054688 -35.28125 16.421875 -31.78125 C 14.785156 -28.28125 13.332031 -24.878906 12.0625 -21.578125 C 10.800781 -18.273438 9.796875 -15.226562 9.046875 -12.4375 C 6.378906 -2.632812 5.378906 5.390625 6.046875 11.640625 C 6.316406 14.296875 6.894531 16.476562 7.78125 18.1875 C 8.664062 19.894531 9.796875 20.988281 11.171875 21.46875 C 12.804688 22.09375 14.785156 21.847656 17.109375 20.734375 C 19.441406 19.628906 21.9375 17.726562 24.59375 15.03125 C 27.476562 12.101562 30.40625 8.367188 33.375 3.828125 C 36.34375 -0.710938 39.289062 -5.890625 42.21875 -11.703125 C 40.882812 -11.566406 39.5 -11.421875 38.0625 -11.265625 C 36.625 -11.109375 35.171875 -10.96875 33.703125 -10.84375 C 31.316406 -10.570312 28.890625 -10.300781 26.421875 -10.03125 C 23.960938 -9.769531 21.5625 -9.484375 19.21875 -9.171875 C 19.164062 -9.171875 19.117188 -9.171875 19.078125 -9.171875 C 18.328125 -9.171875 17.90625 -9.550781 17.8125 -10.3125 C 17.769531 -10.664062 17.847656 -10.984375 18.046875 -11.265625 C 18.242188 -11.554688 18.519531 -11.722656 18.875 -11.765625 C 21.226562 -12.078125 23.632812 -12.351562 26.09375 -12.59375 C 28.550781 -12.84375 31 -13.097656 33.4375 -13.359375 C 35.164062 -13.535156 36.882812 -13.710938 38.59375 -13.890625 C 40.300781 -14.066406 41.953125 -14.242188 43.546875 -14.421875 C 43.585938 -14.515625 43.617188 -14.59375 43.640625 -14.65625 C 43.671875 -14.726562 43.707031 -14.804688 43.75 -14.890625 C 44.0625 -15.597656 44.59375 -15.820312 45.34375 -15.5625 C 45.695312 -15.425781 45.960938 -15.160156 46.140625 -14.765625 C 48.671875 -15.117188 50.929688 -15.484375 52.921875 -15.859375 C 54.910156 -16.234375 56.460938 -16.6875 57.578125 -17.21875 C 57.890625 -17.351562 58.207031 -17.351562 58.53125 -17.21875 C 58.863281 -17.082031 59.097656 -16.859375 59.234375 -16.546875 Z M 59.234375 -16.546875 "/></g></g></g><g fill="#04009a" fill-opacity="1"><g transform="translate(118.262011, 111.983561)"><g><path d="M 29.1875 -15.09375 C 29.5 -14.914062 29.71875 -14.660156 29.84375 -14.328125 C 29.976562 -13.992188 29.957031 -13.671875 29.78125 -13.359375 C 28.9375 -11.546875 27.90625 -9.507812 26.6875 -7.25 C 25.46875 -4.988281 24.171875 -2.71875 22.796875 -0.4375 C 21.429688 1.84375 20.035156 3.925781 18.609375 5.8125 C 17.191406 7.695312 15.816406 9.226562 14.484375 10.40625 C 13.160156 11.582031 11.96875 12.171875 10.90625 12.171875 C 10.59375 12.171875 10.304688 12.101562 10.046875 11.96875 C 9.109375 11.613281 8.492188 10.769531 8.203125 9.4375 C 7.921875 8.113281 7.957031 6.207031 8.3125 3.71875 C 8.925781 -0.75 10.566406 -7.085938 13.234375 -15.296875 C 13.179688 -15.296875 13.144531 -15.28125 13.125 -15.25 C 13.101562 -15.226562 13.070312 -15.21875 13.03125 -15.21875 C 12.144531 -14.601562 11.082031 -13.960938 9.84375 -13.296875 C 8.601562 -12.628906 7.316406 -12.1875 5.984375 -11.96875 C 4.648438 -11.75 3.382812 -12.035156 2.1875 -12.828125 C 0.507812 -14.023438 -0.347656 -15.6875 -0.390625 -17.8125 C -0.441406 -19.945312 0.351562 -22.273438 2 -24.796875 C 2.53125 -25.597656 3.226562 -26.484375 4.09375 -27.453125 C 4.957031 -28.429688 5.863281 -29.1875 6.8125 -29.71875 C 7.769531 -30.25 8.625 -30.269531 9.375 -29.78125 C 9.769531 -29.5625 10.066406 -29.1875 10.265625 -28.65625 C 10.472656 -28.125 10.460938 -27.300781 10.234375 -26.1875 C 10.015625 -25.082031 9.484375 -23.597656 8.640625 -21.734375 C 7.796875 -19.878906 6.535156 -17.46875 4.859375 -14.5 C 5.867188 -14.363281 7.003906 -14.648438 8.265625 -15.359375 C 9.535156 -16.066406 10.660156 -16.734375 11.640625 -17.359375 C 12.566406 -17.972656 13.335938 -18.421875 13.953125 -18.703125 C 14.578125 -18.992188 15.15625 -18.941406 15.6875 -18.546875 C 16.175781 -18.148438 16.375 -17.660156 16.28125 -17.078125 C 16.195312 -16.503906 16.109375 -16.0625 16.015625 -15.75 C 14.554688 -11.144531 13.425781 -7.3125 12.625 -4.25 C 11.832031 -1.195312 11.289062 1.257812 11 3.125 C 10.71875 4.988281 10.578125 6.382812 10.578125 7.3125 C 10.578125 8.238281 10.640625 8.847656 10.765625 9.140625 C 10.898438 9.429688 10.96875 9.597656 10.96875 9.640625 C 11.5 9.722656 12.59375 8.867188 14.25 7.078125 C 15.914062 5.285156 17.898438 2.582031 20.203125 -1.03125 C 22.515625 -4.644531 24.929688 -9.109375 27.453125 -14.421875 C 27.628906 -14.773438 27.882812 -15.007812 28.21875 -15.125 C 28.550781 -15.238281 28.875 -15.226562 29.1875 -15.09375 Z M 2.390625 -19.609375 C 2.128906 -18.679688 2.050781 -17.914062 2.15625 -17.3125 C 2.269531 -16.71875 2.4375 -16.242188 2.65625 -15.890625 C 4.070312 -18.367188 5.144531 -20.382812 5.875 -21.9375 C 6.613281 -23.488281 7.113281 -24.6875 7.375 -25.53125 C 7.644531 -26.375 7.800781 -26.972656 7.84375 -27.328125 C 7.351562 -27.054688 6.742188 -26.546875 6.015625 -25.796875 C 5.285156 -25.046875 4.578125 -24.132812 3.890625 -23.0625 C 3.203125 -22 2.703125 -20.847656 2.390625 -19.609375 Z M 2.390625 -19.609375 "/></g></g></g><g fill="#04009a" fill-opacity="1"><g transform="translate(144.788558, 111.983561)"><g><path d="M 27.859375 -14.765625 C 28.171875 -14.628906 28.378906 -14.394531 28.484375 -14.0625 C 28.597656 -13.726562 28.585938 -13.40625 28.453125 -13.09375 C 27.609375 -11.363281 26.6875 -9.632812 25.6875 -7.90625 C 24.695312 -6.175781 23.65625 -4.59375 22.5625 -3.15625 C 21.476562 -1.71875 20.359375 -0.566406 19.203125 0.296875 C 18.054688 1.160156 16.90625 1.59375 15.75 1.59375 C 15.53125 1.59375 15.289062 1.570312 15.03125 1.53125 C 12.0625 0.957031 10.21875 -3.03125 9.5 -10.4375 C 8.75 -9.414062 7.875 -8.273438 6.875 -7.015625 C 5.882812 -5.753906 4.832031 -4.5 3.71875 -3.25 C 3.539062 -3.070312 3.253906 -2.796875 2.859375 -2.421875 C 2.460938 -2.046875 2 -1.75 1.46875 -1.53125 C 0.9375 -1.3125 0.398438 -1.332031 -0.140625 -1.59375 C -1.203125 -1.988281 -1.707031 -3.140625 -1.65625 -5.046875 C -1.65625 -6.160156 -1.445312 -7.535156 -1.03125 -9.171875 C -0.613281 -10.816406 -0.0195312 -12.46875 0.75 -14.125 C 1.53125 -15.789062 2.441406 -17.265625 3.484375 -18.546875 C 4.523438 -19.835938 5.691406 -20.703125 6.984375 -21.140625 C 7.773438 -21.453125 8.75 -21.507812 9.90625 -21.3125 C 11.0625 -21.113281 12.257812 -20.28125 13.5 -18.8125 C 13.71875 -18.550781 13.816406 -18.242188 13.796875 -17.890625 C 13.773438 -17.535156 13.628906 -17.242188 13.359375 -17.015625 C 13.097656 -16.796875 12.789062 -16.695312 12.4375 -16.71875 C 12.082031 -16.738281 11.789062 -16.882812 11.5625 -17.15625 C 10.5 -18.394531 9.578125 -18.976562 8.796875 -18.90625 C 8.023438 -18.84375 7.375 -18.613281 6.84375 -18.21875 C 5.875 -17.507812 4.988281 -16.488281 4.1875 -15.15625 C 3.382812 -13.820312 2.71875 -12.425781 2.1875 -10.96875 C 1.65625 -9.507812 1.28125 -8.144531 1.0625 -6.875 C 0.84375 -5.613281 0.773438 -4.695312 0.859375 -4.125 C 0.992188 -4.207031 1.140625 -4.316406 1.296875 -4.453125 C 1.453125 -4.585938 1.617188 -4.765625 1.796875 -4.984375 C 3.128906 -6.453125 4.347656 -7.90625 5.453125 -9.34375 C 6.554688 -10.78125 7.507812 -12.050781 8.3125 -13.15625 C 8.53125 -13.46875 8.738281 -13.769531 8.9375 -14.0625 C 9.132812 -14.351562 9.320312 -14.609375 9.5 -14.828125 C 9.863281 -15.265625 10.332031 -15.394531 10.90625 -15.21875 C 11.476562 -15.09375 11.785156 -14.71875 11.828125 -14.09375 C 11.960938 -11.207031 12.195312 -8.890625 12.53125 -7.140625 C 12.863281 -5.390625 13.226562 -4.082031 13.625 -3.21875 C 14.03125 -2.351562 14.410156 -1.765625 14.765625 -1.453125 C 15.117188 -1.148438 15.382812 -1 15.5625 -1 C 16.40625 -0.820312 17.753906 -1.6875 19.609375 -3.59375 C 21.472656 -5.5 23.644531 -9.019531 26.125 -14.15625 C 26.300781 -14.507812 26.554688 -14.742188 26.890625 -14.859375 C 27.222656 -14.972656 27.546875 -14.941406 27.859375 -14.765625 Z M 27.859375 -14.765625 "/></g></g></g><g fill="#04009a" fill-opacity="1"><g transform="translate(169.520105, 111.983561)"><g><path d="M 37.5 -14.890625 C 37.757812 -14.671875 37.898438 -14.382812 37.921875 -14.03125 C 37.953125 -13.675781 37.851562 -13.363281 37.625 -13.09375 C 32 -6.488281 27.546875 -3.804688 24.265625 -5.046875 C 21.921875 -5.929688 20.660156 -8.75 20.484375 -13.5 C 19.992188 -12.613281 19.46875 -11.601562 18.90625 -10.46875 C 18.351562 -9.34375 17.898438 -8.425781 17.546875 -7.71875 C 17.285156 -7.050781 17.019531 -6.453125 16.75 -5.921875 C 16.488281 -5.390625 16.242188 -4.945312 16.015625 -4.59375 C 15.890625 -4.320312 15.660156 -3.929688 15.328125 -3.421875 C 14.992188 -2.910156 14.570312 -2.46875 14.0625 -2.09375 C 13.550781 -1.71875 12.960938 -1.617188 12.296875 -1.796875 C 11.503906 -2.015625 10.90625 -2.597656 10.5 -3.546875 C 10.101562 -4.503906 9.859375 -5.546875 9.765625 -6.671875 C 9.679688 -7.804688 9.640625 -8.726562 9.640625 -9.4375 C 9.640625 -10.019531 9.640625 -10.578125 9.640625 -11.109375 C 9.640625 -11.640625 9.660156 -12.125 9.703125 -12.5625 C 8.148438 -10.34375 6.664062 -8.046875 5.25 -5.671875 C 3.832031 -3.304688 2.328125 -0.597656 0.734375 2.453125 C 0.203125 3.472656 -0.375 3.984375 -1 3.984375 C -1.21875 3.984375 -1.414062 3.921875 -1.59375 3.796875 C -1.8125 3.703125 -2.007812 3.554688 -2.1875 3.359375 C -2.363281 3.160156 -2.460938 2.757812 -2.484375 2.15625 C -2.515625 1.5625 -2.425781 0.644531 -2.21875 -0.59375 C -2.019531 -1.832031 -1.632812 -3.5625 -1.0625 -5.78125 C -0.394531 -8.488281 0.390625 -11.171875 1.296875 -13.828125 C 2.203125 -16.484375 3.125 -18.878906 4.0625 -21.015625 C 4.1875 -21.367188 4.414062 -21.609375 4.75 -21.734375 C 5.082031 -21.867188 5.40625 -21.847656 5.71875 -21.671875 C 6.070312 -21.535156 6.300781 -21.300781 6.40625 -20.96875 C 6.519531 -20.644531 6.507812 -20.328125 6.375 -20.015625 C 5.1875 -17.222656 4.113281 -14.304688 3.15625 -11.265625 C 2.207031 -8.234375 1.46875 -5.585938 0.9375 -3.328125 C 2.300781 -5.765625 3.648438 -8.035156 4.984375 -10.140625 C 6.316406 -12.242188 7.710938 -14.289062 9.171875 -16.28125 C 9.304688 -16.457031 9.539062 -16.703125 9.875 -17.015625 C 10.207031 -17.328125 10.660156 -17.394531 11.234375 -17.21875 C 11.804688 -17 12.125 -16.578125 12.1875 -15.953125 C 12.257812 -15.335938 12.273438 -14.296875 12.234375 -12.828125 C 12.234375 -12.335938 12.222656 -11.804688 12.203125 -11.234375 C 12.179688 -10.660156 12.171875 -10.0625 12.171875 -9.4375 C 12.171875 -8.113281 12.257812 -7.03125 12.4375 -6.1875 C 12.613281 -5.34375 12.765625 -4.765625 12.890625 -4.453125 C 12.984375 -4.546875 13.109375 -4.703125 13.265625 -4.921875 C 13.421875 -5.140625 13.609375 -5.425781 13.828125 -5.78125 C 14.003906 -6.09375 14.210938 -6.515625 14.453125 -7.046875 C 14.703125 -7.578125 14.984375 -8.15625 15.296875 -8.78125 C 16.441406 -11.257812 17.378906 -13.160156 18.109375 -14.484375 C 18.847656 -15.816406 19.484375 -16.726562 20.015625 -17.21875 C 20.546875 -17.707031 21.097656 -17.882812 21.671875 -17.75 C 22.378906 -17.570312 22.785156 -17.140625 22.890625 -16.453125 C 23.003906 -15.765625 23.0625 -15.222656 23.0625 -14.828125 C 23.019531 -12.742188 23.1875 -11.054688 23.5625 -9.765625 C 23.945312 -8.484375 24.492188 -7.710938 25.203125 -7.453125 C 25.992188 -7.140625 27.265625 -7.492188 29.015625 -8.515625 C 30.765625 -9.535156 32.992188 -11.617188 35.703125 -14.765625 C 35.921875 -15.023438 36.207031 -15.164062 36.5625 -15.1875 C 36.914062 -15.207031 37.226562 -15.109375 37.5 -14.890625 Z M 37.5 -14.890625 "/></g></g></g><g mask="url(#9a4342f441)"><g transform="matrix(1, 0, 0, 1, 120, 58)"><g clip-path="url(#5481d86f33)"><g clip-path="url(#045466fd79)"><path fill="#04009a" d="M 80.640625 25.644531 C 77.757812 25.339844 74.871094 25.042969 71.984375 24.738281 C 68.949219 24.417969 65.910156 24.09375 62.875 23.753906 C 62.652344 23.726562 62.394531 23.582031 62.246094 23.410156 C 61.191406 22.191406 60.160156 20.949219 59.121094 19.714844 C 57.269531 17.519531 55.421875 15.320312 53.570312 13.125 C 51.453125 10.617188 49.328125 8.109375 47.210938 5.605469 C 45.8125 3.949219 44.410156 2.300781 43.019531 0.640625 C 42.835938 0.425781 42.714844 0.359375 42.5 0.613281 C 40.597656 2.859375 38.679688 5.089844 36.773438 7.332031 C 34.066406 10.507812 31.367188 13.691406 28.660156 16.867188 C 26.824219 19.019531 24.976562 21.164062 23.144531 23.320312 C 22.917969 23.589844 22.667969 23.722656 22.324219 23.753906 C 20.519531 23.929688 18.71875 24.121094 16.914062 24.3125 C 12.074219 24.824219 7.230469 25.335938 2.390625 25.851562 C 1.835938 25.910156 1.28125 25.980469 0.726562 26.046875 C 0.960938 26.140625 1.191406 26.171875 1.425781 26.171875 C 8.847656 26.179688 16.269531 26.164062 23.6875 26.210938 C 24.542969 26.214844 25.054688 25.914062 25.582031 25.277344 C 27.871094 22.507812 30.207031 19.777344 32.527344 17.035156 C 34.253906 14.992188 35.984375 12.953125 37.714844 10.914062 C 39.296875 9.046875 40.878906 7.179688 42.457031 5.308594 C 42.640625 5.089844 42.777344 4.976562 43.011719 5.261719 C 44.3125 6.832031 45.625 8.390625 46.929688 9.957031 C 49.058594 12.511719 51.183594 15.070312 53.3125 17.625 C 55.585938 20.355469 57.867188 23.078125 60.132812 25.816406 C 60.355469 26.085938 60.582031 26.191406 60.914062 26.191406 C 68.417969 26.179688 75.925781 26.179688 83.429688 26.171875 C 83.675781 26.171875 83.925781 26.140625 84.171875 26.121094 C 84.171875 26.097656 84.171875 26.070312 84.171875 26.046875 C 82.996094 25.910156 81.820312 25.769531 80.640625 25.644531 " fill-opacity="1" fill-rule="nonzero"/></g><path fill="#04009a" d="M 58.753906 18.558594 C 58.992188 18.84375 59.195312 18.8125 59.390625 18.527344 C 59.644531 18.152344 59.894531 17.773438 60.140625 17.390625 C 62.382812 13.921875 64.625 10.453125 66.871094 6.988281 C 66.964844 6.839844 67.085938 6.710938 67.222656 6.539062 C 67.421875 6.804688 67.585938 7.011719 67.742188 7.230469 C 70.234375 10.765625 72.746094 14.28125 75.195312 17.84375 C 75.6875 18.566406 76.199219 18.898438 77.035156 18.785156 C 77.378906 18.734375 77.734375 18.777344 78.195312 18.777344 C 78.03125 18.535156 77.957031 18.417969 77.875 18.308594 C 76.691406 16.71875 75.503906 15.128906 74.320312 13.535156 C 72.105469 10.558594 69.886719 7.582031 67.671875 4.601562 C 67.199219 3.96875 67.214844 3.96875 66.535156 4.367188 C 63.878906 5.941406 61.222656 7.507812 58.5625 9.074219 C 56.957031 10.023438 55.355469 10.976562 53.746094 11.917969 C 53.492188 12.0625 53.480469 12.191406 53.664062 12.410156 C 55.363281 14.457031 57.058594 16.503906 58.753906 18.558594 " fill-opacity="1" fill-rule="nonzero"/><path fill="#04009a" d="M 9.109375 19.054688 C 9.214844 19.050781 9.339844 18.910156 9.414062 18.800781 C 12.128906 14.957031 14.835938 11.105469 17.542969 7.253906 C 17.640625 7.117188 17.699219 6.957031 17.796875 6.773438 C 17.992188 7.015625 18.0625 7.085938 18.117188 7.167969 C 19.039062 8.582031 19.964844 9.996094 20.878906 11.414062 C 22.46875 13.867188 24.050781 16.324219 25.640625 18.777344 C 25.898438 19.179688 26.09375 19.1875 26.386719 18.832031 C 28.042969 16.824219 29.699219 14.816406 31.351562 12.804688 C 31.4375 12.699219 31.511719 12.582031 31.625 12.421875 C 31.453125 12.308594 31.34375 12.226562 31.222656 12.15625 C 29.613281 11.210938 28.003906 10.277344 26.394531 9.328125 C 23.652344 7.714844 20.914062 6.09375 18.171875 4.46875 C 17.96875 4.347656 17.824219 4.359375 17.675781 4.566406 C 17.335938 5.039062 16.976562 5.492188 16.628906 5.957031 C 13.542969 10.105469 10.453125 14.253906 7.367188 18.402344 C 7.230469 18.589844 7.113281 18.789062 6.925781 19.066406 C 7.726562 19.066406 8.417969 19.078125 9.109375 19.054688 " fill-opacity="1" fill-rule="nonzero"/><path fill="#04009a" d="M 43.089844 7.390625 C 42.832031 7.089844 42.699219 7.050781 42.425781 7.378906 C 40.46875 9.746094 38.492188 12.097656 36.523438 14.457031 C 36.09375 14.972656 35.667969 15.492188 35.238281 16.011719 C 35.265625 16.042969 35.296875 16.070312 35.324219 16.101562 C 35.40625 16.03125 35.492188 15.960938 35.574219 15.886719 C 36.632812 14.871094 37.695312 13.859375 38.753906 12.84375 C 39.988281 11.664062 41.222656 10.480469 42.453125 9.296875 C 42.628906 9.125 42.773438 9.015625 43.011719 9.242188 C 44.777344 10.929688 46.554688 12.601562 48.328125 14.277344 C 49.039062 14.945312 49.75 15.609375 50.464844 16.273438 C 50.390625 16.03125 50.257812 15.851562 50.113281 15.679688 C 47.769531 12.917969 45.421875 10.164062 43.089844 7.390625 " fill-opacity="1" fill-rule="nonzero"/><g clip-path="url(#6f985e9d61)"><path fill="#04009a" d="M 42.050781 21.914062 C 41.117188 21.921875 40.183594 21.925781 39.25 21.914062 C 38.945312 21.910156 38.863281 22.042969 38.871094 22.328125 C 38.886719 22.855469 38.875 23.386719 38.875 23.914062 C 38.875 23.914062 38.875 23.914062 38.871094 23.914062 C 38.871094 24.457031 38.886719 25.003906 38.867188 25.546875 C 38.855469 25.878906 38.96875 26.003906 39.296875 25.996094 C 40.175781 25.980469 41.054688 25.96875 41.933594 26 C 42.339844 26.015625 42.4375 25.84375 42.433594 25.476562 C 42.417969 24.414062 42.410156 23.355469 42.417969 22.296875 C 42.417969 22.019531 42.320312 21.910156 42.050781 21.914062 " fill-opacity="1" fill-rule="nonzero"/></g><path fill="#04009a" d="M 42.464844 18.921875 C 42.464844 18.265625 42.460938 17.605469 42.46875 16.949219 C 42.46875 16.671875 42.363281 16.550781 42.089844 16.59375 C 41.144531 16.738281 40.335938 17.128906 39.707031 17.890625 C 38.953125 18.804688 38.8125 19.890625 38.863281 21.03125 C 38.875 21.292969 39.027344 21.324219 39.230469 21.320312 C 40.152344 21.320312 41.074219 21.308594 41.992188 21.328125 C 42.371094 21.335938 42.476562 21.164062 42.46875 20.8125 C 42.453125 20.183594 42.464844 19.554688 42.464844 18.921875 " fill-opacity="1" fill-rule="nonzero"/><g clip-path="url(#8f20b79f2f)"><path fill="#04009a" d="M 46.292969 22.285156 C 46.296875 22.003906 46.179688 21.914062 45.914062 21.914062 C 45.066406 21.921875 44.214844 21.921875 43.367188 21.910156 C 43.09375 21.910156 42.996094 22.027344 43.003906 22.296875 C 43.015625 22.84375 43.007812 23.386719 43.007812 23.929688 C 43.007812 24.472656 43.019531 25.015625 43.003906 25.558594 C 42.996094 25.863281 43.078125 26.003906 43.402344 25.996094 C 44.238281 25.980469 45.074219 25.980469 45.910156 25.996094 C 46.207031 26 46.300781 25.875 46.300781 25.589844 C 46.289062 24.488281 46.289062 23.386719 46.292969 22.285156 " fill-opacity="1" fill-rule="nonzero"/></g><path fill="#04009a" d="M 43.382812 16.648438 C 43.089844 16.589844 42.996094 16.675781 43 16.960938 C 43.007812 17.621094 43.003906 18.277344 43.003906 18.9375 C 43.003906 19.582031 43.023438 20.226562 42.996094 20.867188 C 42.980469 21.246094 43.132812 21.335938 43.464844 21.328125 C 44.046875 21.308594 44.632812 21.320312 45.21875 21.320312 C 46.3125 21.324219 46.3125 21.324219 46.300781 20.222656 C 46.285156 18.445312 45.082031 16.984375 43.382812 16.648438 " fill-opacity="1" fill-rule="nonzero"/><path fill="#04009a" d="M 16.996094 14.519531 C 16.996094 14.253906 16.78125 14.035156 16.519531 14.035156 L 16.132812 14.035156 C 15.867188 14.035156 15.65625 14.253906 15.65625 14.519531 L 15.65625 15.351562 C 15.65625 15.621094 15.867188 15.839844 16.132812 15.839844 L 16.519531 15.839844 C 16.78125 15.839844 16.996094 15.621094 16.996094 15.351562 L 16.996094 14.519531 " fill-opacity="1" fill-rule="nonzero"/><path fill="#04009a" d="M 18.839844 14.519531 C 18.839844 14.253906 18.625 14.035156 18.363281 14.035156 L 17.972656 14.035156 C 17.710938 14.035156 17.5 14.253906 17.5 14.519531 L 17.5 15.351562 C 17.5 15.621094 17.710938 15.839844 17.972656 15.839844 L 18.363281 15.839844 C 18.625 15.839844 18.839844 15.621094 18.839844 15.351562 L 18.839844 14.519531 " fill-opacity="1" fill-rule="nonzero"/><path fill="#04009a" d="M 16.519531 16.183594 L 16.132812 16.183594 C 15.867188 16.183594 15.65625 16.402344 15.65625 16.671875 L 15.65625 17.5 C 15.65625 17.769531 15.867188 17.988281 16.132812 17.988281 L 16.519531 17.988281 C 16.78125 17.988281 16.996094 17.769531 16.996094 17.5 L 16.996094 16.671875 C 16.996094 16.402344 16.78125 16.183594 16.519531 16.183594 " fill-opacity="1" fill-rule="nonzero"/><path fill="#04009a" d="M 18.363281 16.183594 L 17.972656 16.183594 C 17.710938 16.183594 17.5 16.402344 17.5 16.671875 L 17.5 17.5 C 17.5 17.769531 17.710938 17.988281 17.972656 17.988281 L 18.363281 17.988281 C 18.625 17.988281 18.839844 17.769531 18.839844 17.5 L 18.839844 16.671875 C 18.839844 16.402344 18.625 16.183594 18.363281 16.183594 " fill-opacity="1" fill-rule="nonzero"/><path fill="#04009a" d="M 67.328125 14.519531 C 67.328125 14.253906 67.117188 14.035156 66.855469 14.035156 L 66.464844 14.035156 C 66.203125 14.035156 65.988281 14.253906 65.988281 14.519531 L 65.988281 15.351562 C 65.988281 15.621094 66.203125 15.839844 66.464844 15.839844 L 66.855469 15.839844 C 67.117188 15.839844 67.328125 15.621094 67.328125 15.351562 L 67.328125 14.519531 " fill-opacity="1" fill-rule="nonzero"/><path fill="#04009a" d="M 69.171875 14.519531 C 69.171875 14.253906 68.957031 14.035156 68.695312 14.035156 L 68.308594 14.035156 C 68.042969 14.035156 67.832031 14.253906 67.832031 14.519531 L 67.832031 15.351562 C 67.832031 15.621094 68.042969 15.839844 68.308594 15.839844 L 68.695312 15.839844 C 68.957031 15.839844 69.171875 15.621094 69.171875 15.351562 L 69.171875 14.519531 " fill-opacity="1" fill-rule="nonzero"/><path fill="#04009a" d="M 66.855469 16.183594 L 66.464844 16.183594 C 66.203125 16.183594 65.988281 16.402344 65.988281 16.671875 L 65.988281 17.5 C 65.988281 17.769531 66.203125 17.988281 66.464844 17.988281 L 66.855469 17.988281 C 67.117188 17.988281 67.328125 17.769531 67.328125 17.5 L 67.328125 16.671875 C 67.328125 16.402344 67.117188 16.183594 66.855469 16.183594 " fill-opacity="1" fill-rule="nonzero"/><path fill="#04009a" d="M 68.695312 16.183594 L 68.308594 16.183594 C 68.042969 16.183594 67.832031 16.402344 67.832031 16.671875 L 67.832031 17.5 C 67.832031 17.769531 68.042969 17.988281 68.308594 17.988281 L 68.695312 17.988281 C 68.957031 17.988281 69.171875 17.769531 69.171875 17.5 L 69.171875 16.671875 C 69.171875 16.402344 68.957031 16.183594 68.695312 16.183594 " fill-opacity="1" fill-rule="nonzero"/></g></g></g><g fill="#04009a" fill-opacity="1"><g transform="translate(99.919945, 142.576602)"><g><path d="M 9.0625 3.828125 C 8.363281 3.929688 7.90625 3.984375 7.6875 3.984375 C 7.15625 3.984375 6.515625 3.878906 5.765625 3.671875 C 5.410156 3.554688 5.148438 3.429688 4.984375 3.296875 C 4.828125 3.160156 4.644531 2.960938 4.4375 2.703125 C 4.238281 2.453125 4.085938 2.265625 3.984375 2.140625 C 3.503906 1.460938 3.265625 0.867188 3.265625 0.359375 C 3.265625 -0.0351562 3.453125 -0.179688 3.828125 -0.078125 C 4.097656 0.0546875 4.394531 0.320312 4.71875 0.71875 C 5.03125 1.039062 5.375 1.273438 5.75 1.421875 C 6.132812 1.578125 6.59375 1.65625 7.125 1.65625 C 7.3125 1.65625 7.675781 1.628906 8.21875 1.578125 C 8.863281 1.460938 9.613281 1.257812 10.46875 0.96875 C 11.320312 0.675781 11.953125 0.367188 12.359375 0.046875 C 13.648438 -0.835938 14.703125 -1.550781 15.515625 -2.09375 C 16.335938 -2.632812 16.859375 -2.96875 17.078125 -3.09375 C 17.128906 -3.226562 17.410156 -3.390625 17.921875 -3.578125 L 19 -4.625 C 19.695312 -5.382812 20.15625 -5.84375 20.375 -6 C 20.40625 -6.1875 20.453125 -6.378906 20.515625 -6.578125 C 20.578125 -6.785156 20.609375 -6.941406 20.609375 -7.046875 C 20.929688 -7.390625 21.414062 -8.226562 22.0625 -9.5625 C 22.707031 -10.894531 23.148438 -12.039062 23.390625 -13 C 23.628906 -14.257812 23.75 -15.375 23.75 -16.34375 C 23.75 -17.976562 23.460938 -19.351562 22.890625 -20.46875 C 22.316406 -21.582031 21.476562 -22.613281 20.375 -23.5625 C 19.8125 -24.007812 18.878906 -24.507812 17.578125 -25.0625 C 16.273438 -25.613281 15.515625 -25.847656 15.296875 -25.765625 C 15.160156 -25.742188 14.796875 -24.972656 14.203125 -23.453125 C 13.617188 -21.929688 12.816406 -19.75 11.796875 -16.90625 L 10.515625 -13.328125 C 10.398438 -12.898438 10.273438 -12.5 10.140625 -12.125 C 10.015625 -11.75 9.910156 -11.410156 9.828125 -11.109375 C 9.472656 -10.117188 9.296875 -9.554688 9.296875 -9.421875 C 9.003906 -8.960938 8.769531 -8.363281 8.59375 -7.625 C 8.414062 -6.882812 8.222656 -5.628906 8.015625 -3.859375 C 7.773438 -2.972656 7.664062 -2.570312 7.6875 -2.65625 C 7.582031 -2.195312 7.488281 -1.820312 7.40625 -1.53125 C 7.320312 -1.238281 7.242188 -1.101562 7.171875 -1.125 L 7 -0.96875 C 7 -0.800781 6.878906 -0.71875 6.640625 -0.71875 C 6.429688 -0.71875 6.191406 -0.78125 5.921875 -0.90625 C 5.648438 -1.03125 5.4375 -1.171875 5.28125 -1.328125 C 5.164062 -1.703125 5.109375 -1.972656 5.109375 -2.140625 C 5.109375 -2.484375 5.21875 -3.019531 5.4375 -3.75 C 5.65625 -4.65625 6.007812 -5.929688 6.5 -7.578125 C 7 -9.234375 7.421875 -10.585938 7.765625 -11.640625 C 7.953125 -12.097656 8.222656 -12.957031 8.578125 -14.21875 C 8.867188 -15.207031 9.195312 -16.222656 9.5625 -17.265625 C 9.925781 -18.316406 10.1875 -18.976562 10.34375 -19.25 C 10.394531 -19.4375 10.578125 -19.972656 10.890625 -20.859375 C 11.203125 -21.742188 11.570312 -22.722656 12 -23.796875 L 12.28125 -25.125 L 11.84375 -25.328125 C 11.59375 -25.242188 11.375 -25.203125 11.1875 -25.203125 C 11.0625 -25.203125 10.914062 -25.242188 10.75 -25.328125 C 10.476562 -25.242188 10.109375 -25.351562 9.640625 -25.65625 C 9.171875 -25.96875 8.910156 -26.257812 8.859375 -26.53125 C 8.804688 -26.613281 8.769531 -26.734375 8.75 -26.890625 C 8.738281 -27.054688 8.734375 -27.164062 8.734375 -27.21875 C 8.785156 -27.488281 9.320312 -27.738281 10.34375 -27.96875 C 11.363281 -28.195312 12.476562 -28.3125 13.6875 -28.3125 C 14.195312 -28.3125 14.585938 -28.296875 14.859375 -28.265625 C 15.335938 -28.234375 15.796875 -28.148438 16.234375 -28.015625 C 16.679688 -27.890625 17.226562 -27.691406 17.875 -27.421875 L 18.84375 -27.0625 C 19.695312 -26.738281 20.613281 -26.171875 21.59375 -25.359375 C 22.582031 -24.554688 23.457031 -23.609375 24.21875 -22.515625 C 24.988281 -21.429688 25.503906 -20.328125 25.765625 -19.203125 C 25.847656 -18.859375 25.925781 -18.375 26 -17.75 C 26.082031 -17.132812 26.125 -16.585938 26.125 -16.109375 C 26.125 -15.546875 26.070312 -15.195312 25.96875 -15.0625 C 25.882812 -14.945312 25.84375 -14.8125 25.84375 -14.65625 C 25.84375 -14.5 25.898438 -14.40625 26.015625 -14.375 C 25.960938 -14.21875 25.867188 -13.921875 25.734375 -13.484375 C 25.597656 -13.054688 25.445312 -12.601562 25.28125 -12.125 C 25.125 -10.425781 24.375 -8.4375 23.03125 -6.15625 C 22.894531 -6.15625 22.785156 -6.132812 22.703125 -6.09375 C 22.628906 -6.0625 22.644531 -6.03125 22.75 -6 C 22.75 -5.863281 22.601562 -5.609375 22.3125 -5.234375 C 22.226562 -5.179688 22.054688 -4.984375 21.796875 -4.640625 C 21.546875 -4.304688 21.367188 -4.101562 21.265625 -4.03125 C 21.234375 -3.84375 21.148438 -3.6875 21.015625 -3.5625 C 20.878906 -3.4375 20.757812 -3.375 20.65625 -3.375 C 20.65625 -3.375 20.632812 -3.367188 20.59375 -3.359375 C 20.550781 -3.347656 20.53125 -3.300781 20.53125 -3.21875 C 20.050781 -2.519531 19.171875 -1.660156 17.890625 -0.640625 C 16.617188 0.378906 15.488281 1.101562 14.5 1.53125 C 14.226562 1.71875 13.910156 1.890625 13.546875 2.046875 C 13.179688 2.210938 12.929688 2.320312 12.796875 2.375 C 12.585938 2.5625 12.046875 2.820312 11.171875 3.15625 C 10.296875 3.5 9.59375 3.722656 9.0625 3.828125 Z M 9.0625 3.828125 "/></g></g></g><g fill="#04009a" fill-opacity="1"><g transform="translate(123.189074, 142.576602)"><g><path d="M 11.109375 -1.40625 C 10.441406 -0.820312 9.640625 -0.53125 8.703125 -0.53125 C 8.023438 -0.53125 7.382812 -0.6875 6.78125 -1 C 6.175781 -1.320312 5.675781 -1.765625 5.28125 -2.328125 C 4.925781 -2.765625 4.664062 -3.25 4.5 -3.78125 C 4.34375 -4.320312 4.265625 -4.984375 4.265625 -5.765625 C 4.265625 -6.023438 4.289062 -6.5625 4.34375 -7.375 C 4.425781 -8.363281 4.753906 -9.394531 5.328125 -10.46875 C 5.910156 -11.539062 6.628906 -12.5 7.484375 -13.34375 C 8.347656 -14.1875 9.195312 -14.769531 10.03125 -15.09375 C 10.457031 -15.363281 10.84375 -15.5 11.1875 -15.5 C 11.375 -15.5 11.5625 -15.484375 11.75 -15.453125 C 11.945312 -15.429688 12.148438 -15.40625 12.359375 -15.375 C 12.953125 -15.300781 13.398438 -15.1875 13.703125 -15.03125 C 14.015625 -14.882812 14.28125 -14.664062 14.5 -14.375 C 15.164062 -13.707031 15.5 -12.929688 15.5 -12.046875 C 15.394531 -11.398438 14.976562 -10.660156 14.25 -9.828125 C 13.53125 -8.992188 12.660156 -8.320312 11.640625 -7.8125 C 11.148438 -7.644531 10.597656 -7.5625 9.984375 -7.5625 C 9.148438 -7.5625 8.476562 -7.738281 7.96875 -8.09375 C 7.726562 -8.175781 7.539062 -8.21875 7.40625 -8.21875 C 7.164062 -8.21875 6.984375 -8.054688 6.859375 -7.734375 C 6.742188 -7.410156 6.628906 -6.816406 6.515625 -5.953125 C 6.492188 -5.765625 6.484375 -5.5 6.484375 -5.15625 C 6.484375 -3.78125 6.941406 -3.03125 7.859375 -2.90625 C 8.472656 -2.769531 8.914062 -2.703125 9.1875 -2.703125 C 9.5 -2.703125 9.859375 -2.804688 10.265625 -3.015625 L 11.03125 -3.46875 C 11.195312 -3.539062 11.34375 -3.644531 11.46875 -3.78125 C 11.601562 -3.914062 11.726562 -4.035156 11.84375 -4.140625 C 11.894531 -4.203125 11.972656 -4.289062 12.078125 -4.40625 C 12.179688 -4.53125 12.28125 -4.613281 12.375 -4.65625 C 12.46875 -4.695312 12.554688 -4.71875 12.640625 -4.71875 C 12.742188 -4.71875 12.863281 -4.65625 13 -4.53125 C 13.132812 -4.40625 13.242188 -4.316406 13.328125 -4.265625 C 13.566406 -4.265625 13.617188 -4.097656 13.484375 -3.765625 C 13.347656 -3.429688 13.054688 -3.039062 12.609375 -2.59375 C 12.171875 -2.15625 11.671875 -1.757812 11.109375 -1.40625 Z M 11.078125 -9.953125 C 11.523438 -10.140625 11.984375 -10.472656 12.453125 -10.953125 C 12.929688 -11.429688 13.171875 -11.832031 13.171875 -12.15625 C 13.171875 -12.476562 13.046875 -12.742188 12.796875 -12.953125 C 12.554688 -13.171875 12.222656 -13.28125 11.796875 -13.28125 C 11.472656 -13.28125 11.234375 -13.253906 11.078125 -13.203125 C 10.703125 -13.097656 10.257812 -12.8125 9.75 -12.34375 C 9.238281 -11.875 8.796875 -11.394531 8.421875 -10.90625 C 8.046875 -10.425781 7.894531 -10.144531 7.96875 -10.0625 C 8.101562 -9.820312 8.628906 -9.703125 9.546875 -9.703125 C 10.160156 -9.703125 10.671875 -9.785156 11.078125 -9.953125 Z M 11.078125 -9.953125 "/></g></g></g><g fill="#04009a" fill-opacity="1"><g transform="translate(136.272928, 142.576602)"><g><path d="M 6.484375 0.15625 C 6.003906 -0.03125 5.535156 -0.300781 5.078125 -0.65625 C 4.617188 -1.019531 4.304688 -1.335938 4.140625 -1.609375 C 4.140625 -1.660156 4.140625 -1.753906 4.140625 -1.890625 C 4.140625 -2.023438 4.179688 -2.113281 4.265625 -2.15625 C 4.347656 -2.195312 4.5 -2.21875 4.71875 -2.21875 C 5.164062 -2.21875 5.890625 -2.160156 6.890625 -2.046875 C 7.472656 -2.046875 8.140625 -2.117188 8.890625 -2.265625 C 9.648438 -2.421875 10.066406 -2.59375 10.140625 -2.78125 C 10.222656 -2.78125 10.265625 -2.789062 10.265625 -2.8125 C 10.265625 -2.875 10.160156 -3.007812 9.953125 -3.21875 C 9.890625 -3.21875 9.765625 -3.265625 9.578125 -3.359375 C 9.390625 -3.453125 9.269531 -3.5 9.21875 -3.5 C 9.21875 -3.613281 9.097656 -3.753906 8.859375 -3.921875 C 8.617188 -4.097656 8.347656 -4.253906 8.046875 -4.390625 C 7.273438 -5.035156 6.726562 -5.507812 6.40625 -5.8125 C 6.082031 -6.125 5.960938 -6.347656 6.046875 -6.484375 L 6.046875 -6.6875 C 5.859375 -6.6875 5.648438 -6.945312 5.421875 -7.46875 C 5.191406 -7.988281 5.078125 -8.476562 5.078125 -8.9375 C 5.078125 -9.414062 5.285156 -10.082031 5.703125 -10.9375 C 6.117188 -11.800781 6.59375 -12.503906 7.125 -13.046875 C 7.875 -13.742188 8.847656 -14.476562 10.046875 -15.25 C 11.242188 -16.03125 12.191406 -16.53125 12.890625 -16.75 C 13.335938 -16.9375 13.789062 -17.03125 14.25 -17.03125 C 14.675781 -17.03125 15.039062 -16.9375 15.34375 -16.75 C 15.6875 -16.53125 16.023438 -16.21875 16.359375 -15.8125 C 16.703125 -15.414062 16.925781 -15.054688 17.03125 -14.734375 C 17.03125 -14.140625 16.96875 -13.566406 16.84375 -13.015625 C 16.726562 -12.472656 16.550781 -12.203125 16.3125 -12.203125 C 16.28125 -12.203125 16.238281 -12.1875 16.1875 -12.15625 C 16.132812 -12.132812 16.109375 -12.066406 16.109375 -11.953125 C 16.109375 -11.847656 16.050781 -11.707031 15.9375 -11.53125 C 15.832031 -11.363281 15.6875 -11.195312 15.5 -11.03125 C 14.90625 -10.601562 14.421875 -10.390625 14.046875 -10.390625 C 13.753906 -10.390625 13.566406 -10.535156 13.484375 -10.828125 C 13.429688 -10.878906 13.378906 -10.957031 13.328125 -11.0625 C 13.273438 -11.175781 13.207031 -11.234375 13.125 -11.234375 C 13.101562 -11.234375 13.054688 -11.28125 12.984375 -11.375 C 12.921875 -11.46875 12.890625 -11.59375 12.890625 -11.75 C 12.890625 -11.832031 12.921875 -11.921875 12.984375 -12.015625 C 13.054688 -12.109375 13.101562 -12.171875 13.125 -12.203125 C 13.289062 -12.203125 13.5625 -12.515625 13.9375 -13.140625 C 14.3125 -13.773438 14.5 -14.203125 14.5 -14.421875 C 14.5 -14.578125 14.476562 -14.664062 14.4375 -14.6875 C 14.394531 -14.71875 14.265625 -14.734375 14.046875 -14.734375 C 11.953125 -13.796875 10.648438 -13.085938 10.140625 -12.609375 C 10.066406 -12.441406 10.007812 -12.332031 9.96875 -12.28125 C 9.925781 -12.226562 9.851562 -12.203125 9.75 -12.203125 C 9.75 -12.441406 9.035156 -11.53125 7.609375 -9.46875 C 7.554688 -9.40625 7.492188 -9.238281 7.421875 -8.96875 C 7.359375 -8.707031 7.328125 -8.484375 7.328125 -8.296875 C 7.273438 -8.078125 7.25 -7.957031 7.25 -7.9375 C 7.25 -7.820312 7.296875 -7.710938 7.390625 -7.609375 C 7.484375 -7.503906 7.609375 -7.390625 7.765625 -7.265625 C 7.929688 -7.148438 8.09375 -7.023438 8.25 -6.890625 C 9.644531 -5.835938 10.617188 -5.050781 11.171875 -4.53125 C 11.722656 -4.007812 12.050781 -3.570312 12.15625 -3.21875 C 12.507812 -2.6875 12.6875 -2.203125 12.6875 -1.765625 C 12.6875 -1.441406 12.5625 -1.160156 12.3125 -0.921875 C 12.070312 -0.679688 11.710938 -0.453125 11.234375 -0.234375 C 10.941406 -0.109375 10.445312 0 9.75 0.09375 C 9.050781 0.1875 8.363281 0.234375 7.6875 0.234375 C 7.3125 0.234375 6.910156 0.207031 6.484375 0.15625 Z M 6.484375 0.15625 "/></g></g></g><g fill="#04009a" fill-opacity="1"><g transform="translate(150.000911, 142.576602)"><g><path d="M 8.375 -17.640625 C 8.1875 -17.828125 8.023438 -18.144531 7.890625 -18.59375 C 7.753906 -19.050781 7.753906 -19.28125 7.890625 -19.28125 C 8.109375 -19.3125 8.359375 -19.546875 8.640625 -19.984375 C 8.921875 -20.429688 9.046875 -20.800781 9.015625 -21.09375 C 9.015625 -21.207031 9.054688 -21.3125 9.140625 -21.40625 C 9.222656 -21.5 9.316406 -21.554688 9.421875 -21.578125 C 9.640625 -21.710938 9.828125 -21.78125 9.984375 -21.78125 C 10.441406 -21.78125 10.859375 -21.457031 11.234375 -20.8125 C 11.390625 -20.46875 11.46875 -20.160156 11.46875 -19.890625 C 11.46875 -19.648438 11.398438 -19.398438 11.265625 -19.140625 C 11.140625 -18.890625 10.898438 -18.5625 10.546875 -18.15625 C 10.085938 -17.539062 9.660156 -17.234375 9.265625 -17.234375 C 8.992188 -17.234375 8.695312 -17.367188 8.375 -17.640625 Z M 4.46875 -1.28125 C 4.09375 -1.664062 3.90625 -2.207031 3.90625 -2.90625 C 3.90625 -3.28125 3.972656 -3.597656 4.109375 -3.859375 C 4.109375 -3.992188 4.132812 -4.15625 4.1875 -4.34375 C 4.238281 -4.53125 4.265625 -4.65625 4.265625 -4.71875 C 4.242188 -4.875 4.351562 -5.316406 4.59375 -6.046875 C 5.070312 -7.117188 5.710938 -9.007812 6.515625 -11.71875 C 6.515625 -11.851562 6.566406 -11.96875 6.671875 -12.0625 C 6.785156 -12.15625 6.953125 -12.210938 7.171875 -12.234375 C 7.378906 -12.296875 7.523438 -12.328125 7.609375 -12.328125 C 7.773438 -12.328125 7.914062 -12.265625 8.03125 -12.140625 C 8.15625 -12.015625 8.320312 -11.789062 8.53125 -11.46875 C 8.695312 -11.3125 8.78125 -11.070312 8.78125 -10.75 C 8.78125 -10.238281 8.601562 -9.625 8.25 -8.90625 C 7.90625 -8.125 7.675781 -7.453125 7.5625 -6.890625 C 7.25 -6.160156 7 -5.488281 6.8125 -4.875 C 6.75 -4.707031 6.664062 -4.382812 6.5625 -3.90625 C 6.457031 -3.425781 6.3125 -3.035156 6.125 -2.734375 C 5.957031 -1.984375 5.804688 -1.457031 5.671875 -1.15625 C 5.535156 -0.863281 5.390625 -0.71875 5.234375 -0.71875 C 5.046875 -0.71875 4.789062 -0.90625 4.46875 -1.28125 Z M 4.46875 -1.28125 "/></g></g></g><g fill="#04009a" fill-opacity="1"><g transform="translate(157.529159, 142.576602)"><g><path d="M 15.546875 -12.15625 C 15.703125 -11.832031 15.78125 -11.523438 15.78125 -11.234375 C 15.78125 -10.828125 15.617188 -10.425781 15.296875 -10.03125 C 15.222656 -9.894531 15.078125 -9.6875 14.859375 -9.40625 C 14.640625 -9.125 14.445312 -8.832031 14.28125 -8.53125 C 14.125 -8.238281 14.007812 -7.90625 13.9375 -7.53125 C 13.820312 -6.914062 13.5 -5.597656 12.96875 -3.578125 L 12.515625 -2.015625 L 11.875 0.484375 C 10.664062 4.640625 9.457031 7.039062 8.25 7.6875 C 7.90625 7.820312 7.570312 7.890625 7.25 7.890625 C 6.65625 7.890625 6.039062 7.691406 5.40625 7.296875 C 4.78125 6.910156 4.238281 6.382812 3.78125 5.71875 C 3.507812 5.34375 3.25 4.742188 3 3.921875 C 2.75 3.109375 2.703125 2.644531 2.859375 2.53125 C 2.910156 2.476562 3.003906 2.453125 3.140625 2.453125 C 3.328125 2.453125 3.523438 2.507812 3.734375 2.625 C 3.953125 2.75 4.085938 2.894531 4.140625 3.0625 C 4.253906 3.351562 4.484375 3.738281 4.828125 4.21875 C 5.179688 4.707031 5.4375 4.96875 5.59375 5 C 6.019531 5.207031 6.382812 5.3125 6.6875 5.3125 C 6.925781 5.3125 7.15625 5.234375 7.375 5.078125 C 7.800781 4.722656 8.164062 4.269531 8.46875 3.71875 C 8.78125 3.175781 9.125 2.300781 9.5 1.09375 L 9.828125 -0.078125 C 10.472656 -2.441406 10.941406 -3.972656 11.234375 -4.671875 C 11.367188 -5.097656 11.503906 -5.429688 11.640625 -5.671875 L 10.90625 -5.03125 C 10.582031 -4.738281 10.242188 -4.457031 9.890625 -4.1875 C 9.546875 -3.914062 9.1875 -3.703125 8.8125 -3.546875 C 8.625 -3.304688 8.15625 -3.1875 7.40625 -3.1875 C 6.875 -3.1875 6.335938 -3.265625 5.796875 -3.421875 C 5.234375 -3.710938 4.882812 -3.9375 4.75 -4.09375 C 4.613281 -4.257812 4.425781 -4.640625 4.1875 -5.234375 C 4.082031 -5.453125 4.03125 -5.785156 4.03125 -6.234375 C 4.03125 -7.390625 4.296875 -8.628906 4.828125 -9.953125 C 5.335938 -10.992188 6.144531 -12.101562 7.25 -13.28125 C 8.351562 -14.46875 9.304688 -15.179688 10.109375 -15.421875 C 10.429688 -15.578125 10.726562 -15.65625 11 -15.65625 C 11.289062 -15.65625 11.597656 -15.601562 11.921875 -15.5 C 12.347656 -15.445312 12.679688 -15.351562 12.921875 -15.21875 C 13.160156 -15.082031 13.566406 -14.773438 14.140625 -14.296875 C 14.773438 -13.648438 15.242188 -12.9375 15.546875 -12.15625 Z M 11.109375 -8.171875 C 11.566406 -8.785156 11.890625 -9.445312 12.078125 -10.15625 C 12.265625 -10.875 12.332031 -11.582031 12.28125 -12.28125 C 12.25 -12.65625 12.191406 -12.914062 12.109375 -13.0625 C 12.035156 -13.207031 11.890625 -13.28125 11.671875 -13.28125 C 11.160156 -13.28125 10.570312 -13.039062 9.90625 -12.5625 C 9.238281 -12.082031 8.59375 -11.453125 7.96875 -10.671875 C 7.570312 -10.128906 7.238281 -9.484375 6.96875 -8.734375 C 6.644531 -7.828125 6.484375 -6.984375 6.484375 -6.203125 C 6.484375 -5.609375 6.59375 -5.269531 6.8125 -5.1875 C 7.632812 -5.21875 8.390625 -5.460938 9.078125 -5.921875 C 9.765625 -6.378906 10.441406 -7.128906 11.109375 -8.171875 Z M 11.109375 -8.171875 "/></g></g></g><g fill="#04009a" fill-opacity="1"><g transform="translate(171.820751, 142.576602)"><g><path d="M 18.28125 -1.859375 C 17.738281 -1.859375 17.289062 -1.96875 16.9375 -2.1875 C 16.59375 -2.414062 16.300781 -2.800781 16.0625 -3.34375 C 15.820312 -4.195312 15.703125 -5.054688 15.703125 -5.921875 C 15.703125 -6.316406 15.742188 -6.597656 15.828125 -6.765625 C 15.929688 -6.867188 15.972656 -7.101562 15.953125 -7.46875 C 15.941406 -7.832031 15.9375 -8.09375 15.9375 -8.25 C 15.914062 -8.875 15.726562 -9.1875 15.375 -9.1875 C 15.132812 -9.1875 14.867188 -9.09375 14.578125 -8.90625 C 13.078125 -7.957031 11.816406 -7.144531 10.796875 -6.46875 C 9.773438 -5.800781 8.796875 -5.054688 7.859375 -4.234375 C 7.472656 -3.796875 7.1875 -3.414062 7 -3.09375 C 6.8125 -2.78125 6.675781 -2.5625 6.59375 -2.4375 C 6.519531 -2.3125 6.414062 -2.25 6.28125 -2.25 C 6.125 -2.195312 6.015625 -2.171875 5.953125 -2.171875 C 5.828125 -2.171875 5.664062 -2.242188 5.46875 -2.390625 C 5.28125 -2.546875 5.160156 -2.648438 5.109375 -2.703125 C 5.003906 -2.804688 4.832031 -2.984375 4.59375 -3.234375 C 4.351562 -3.492188 4.21875 -3.675781 4.1875 -3.78125 C 4.1875 -4 4.273438 -4.492188 4.453125 -5.265625 C 4.628906 -6.046875 4.769531 -6.546875 4.875 -6.765625 C 4.957031 -6.765625 5.078125 -6.929688 5.234375 -7.265625 C 5.390625 -7.597656 5.535156 -7.859375 5.671875 -8.046875 C 5.753906 -8.453125 6.101562 -9.378906 6.71875 -10.828125 C 7.09375 -11.472656 7.351562 -12.007812 7.5 -12.4375 C 7.65625 -12.875 7.757812 -13.410156 7.8125 -14.046875 L 7.8125 -14.140625 C 7.8125 -14.242188 7.847656 -14.328125 7.921875 -14.390625 C 8.003906 -14.460938 8.085938 -14.5 8.171875 -14.5 C 8.359375 -14.632812 8.535156 -14.703125 8.703125 -14.703125 C 9.046875 -14.703125 9.394531 -14.484375 9.75 -14.046875 C 10.144531 -13.535156 10.34375 -13 10.34375 -12.4375 C 10.34375 -11.738281 9.898438 -10.640625 9.015625 -9.140625 C 8.941406 -8.953125 8.828125 -8.679688 8.671875 -8.328125 C 8.523438 -7.984375 8.453125 -7.742188 8.453125 -7.609375 L 10.703125 -9.140625 C 10.921875 -9.378906 11.5 -9.804688 12.4375 -10.421875 C 13.375 -11.046875 14.035156 -11.394531 14.421875 -11.46875 C 15.054688 -11.769531 15.457031 -11.921875 15.625 -11.921875 C 15.945312 -11.921875 16.378906 -11.675781 16.921875 -11.1875 C 17.472656 -10.707031 17.804688 -10.304688 17.921875 -9.984375 C 17.921875 -9.691406 17.945312 -9.476562 18 -9.34375 C 18.132812 -8.800781 18.203125 -8.171875 18.203125 -7.453125 C 18.203125 -6.960938 18.164062 -6.523438 18.09375 -6.140625 C 18.03125 -5.753906 17.945312 -5.53125 17.84375 -5.46875 C 17.84375 -5.445312 17.851562 -5.410156 17.875 -5.359375 C 17.90625 -5.304688 17.957031 -5.28125 18.03125 -5.28125 L 18.03125 -5.078125 C 17.820312 -5.078125 17.796875 -4.847656 17.953125 -4.390625 C 18.117188 -3.929688 18.335938 -3.582031 18.609375 -3.34375 C 18.867188 -3.070312 19 -2.800781 19 -2.53125 C 19 -2.207031 18.757812 -1.984375 18.28125 -1.859375 Z M 18.28125 -1.859375 "/></g></g></g></svg>